<?xml version="1.0" encoding="UTF-8" standalone="no"?>
<svg
   version="1.1"
   viewBox="0 0 960 400"
   fill="none"
   stroke="none"
   stroke-linecap="square"
   stroke-miterlimit="10"
   id="svg83"
   sodipodi:docname="irs.svg"
   width="960"
   height="400"
   inkscape:version="1.2.2 (b0a8486541, 2022-12-01)"
   xmlns:inkscape="http://www.inkscape.org/namespaces/inkscape"
   xmlns:sodipodi="http://sodipodi.sourceforge.net/DTD/sodipodi-0.dtd"
   xmlns="http://www.w3.org/2000/svg"
   xmlns:svg="http://www.w3.org/2000/svg">
  <defs
     id="defs87" />
  <sodipodi:namedview
     id="namedview85"
     pagecolor="#ffffff"
     bordercolor="#000000"
     borderopacity="0.25"
     inkscape:showpageshadow="2"
     inkscape:pageopacity="0.0"
     inkscape:pagecheckerboard="0"
     inkscape:deskcolor="#d1d1d1"
     showgrid="false"
     inkscape:zoom="1.8541911"
     inkscape:cx="439.00545"
     inkscape:cy="175.81791"
     inkscape:window-width="2560"
     inkscape:window-height="1371"
     inkscape:window-x="0"
     inkscape:window-y="0"
     inkscape:window-maximized="1"
     inkscape:current-layer="g81" />
  <clipPath
     id="p.0">
    <path
       d="M 0,0 H 960 V 720 H 0 Z"
       clip-rule="nonzero"
       id="path2" />
  </clipPath>
  <g
     clip-path="url(#p.0)"
     id="g81">
    <path
       fill="#000000"
       fill-opacity="0"
       d="M 0,0 H 960 V 720 H 0 Z"
       fill-rule="evenodd"
       id="path5" />
    <path
       fill="#d9d9d9"
       d="M 18.301948,68.460981 H 267.08935 V 110.47674 H 18.301948 Z"
       fill-rule="evenodd"
       id="path7" />
    <path
       fill="#000000"
       d="m 34.867463,95.380981 v -7.70313 h -2.984375 v -1.53125 h 2.984375 v -1.76562 q 0,-1.21875 0.765625,-1.92188 0.765625,-0.70312 2.109375,-0.70312 h 3 v 1.53125 h -3 q -0.578125,0 -0.890625,0.28125 -0.3125,0.26562 -0.3125,0.8125 v 1.76562 h 4.203125 v 1.53125 h -4.203125 v 7.70313 z m 14.084383,0 q -0.90625,0 -1.578125,-0.34375 -0.671875,-0.35938 -1.046875,-1.01563 -0.359375,-0.65625 -0.359375,-1.53125 v -9.20312 h -3.453125 v -1.53125 h 5.125 v 10.73437 q 0,0.64063 0.359375,1 0.359375,0.35938 0.953125,0.35938 h 3.265625 v 1.53125 z m 9.771881,0.1875 q -1.765625,0 -2.84375,-1.04688 -1.0625,-1.0625 -1.0625,-2.875 v -6.53125 h 1.6875 v 6.53125 q 0,1.15625 0.59375,1.8125 0.59375,0.64063 1.625,0.64063 1.046875,0 1.640625,-0.64063 0.609375,-0.65625 0.609375,-1.8125 v -6.53125 h 1.6875 v 6.53125 q 0,1.8125 -1.09375,2.875 -1.078125,1.04688 -2.84375,1.04688 z m 6.553131,-0.1875 3.640625,-5.28125 -3.421875,-4.98438 h 1.984375 l 2.03125,3.17188 q 0.125,0.20312 0.25,0.45312 0.125,0.23438 0.1875,0.39063 0.0625,-0.15625 0.171875,-0.39063 0.125,-0.25 0.265625,-0.45312 l 2.046875,-3.17188 h 1.96875 l -3.421875,5 3.625,5.26563 h -1.984375 l -2.203125,-3.35938 q -0.125,-0.20312 -0.25,-0.46875 -0.125,-0.28125 -0.21875,-0.4375 -0.0625,0.15625 -0.203125,0.4375 -0.140625,0.26563 -0.296875,0.46875 l -2.21875,3.35938 z m 11.381256,1.85937 v -1.39062 h 8.953125 v 1.39062 z m 15.350006,-1.70312 q -1.046875,0 -1.828125,-0.32813 -0.765625,-0.32812 -1.234375,-0.92187 -0.453125,-0.60938 -0.546875,-1.42188 h 1.6875 q 0.109375,0.53125 0.59375,0.85938 0.5,0.3125 1.328125,0.3125 h 0.78125 q 0.984375,0 1.46875,-0.39063 0.484375,-0.40625 0.484375,-1.07812 0,-0.65625 -0.4375,-1.03125 -0.4375,-0.39063 -1.296875,-0.51563 l -1.375,-0.23437 q -1.515625,-0.25 -2.25,-0.9375 -0.734375,-0.6875 -0.734375,-1.98438 0,-1.39062 0.875,-2.14062 0.875,-0.75 2.625,-0.75 h 0.71875 q 1.46875,0 2.359375,0.6875 0.90625,0.6875 1.09375,1.85937 h -1.6875 q -0.109375,-0.48437 -0.5625,-0.76562 -0.4375,-0.29688 -1.203125,-0.29688 h -0.71875 q -0.9375,0 -1.390625,0.35938 -0.4375,0.35937 -0.4375,1.0625 0,0.64062 0.375,0.9375 0.375,0.29687 1.1875,0.42187 l 1.375,0.23438 q 1.65625,0.25 2.40625,0.96875 0.765625,0.70312 0.765625,2.04687 0,1.42188 -0.90625,2.23438 -0.90625,0.8125 -2.734375,0.8125 z m 9.24063,3.20312 1.5,-4 -3.796873,-9.625 h 1.859373 l 2.39063,6.34375 q 0.125,0.32813 0.23437,0.76563 0.125,0.4375 0.1875,0.73437 0.0781,-0.29687 0.1875,-0.73437 0.10938,-0.4375 0.23438,-0.76563 l 2.23437,-6.34375 h 1.8125 l -5.0625,13.625 z m 9.58439,-3.35937 v -10.26563 h 1.67187 v 1.96875 h 0.35938 l -0.35938,0.39063 q 0,-1.21875 0.71875,-1.875 0.73438,-0.67188 2.03124,-0.67188 1.54688,0 2.45313,0.95313 0.92187,0.95312 0.92187,2.59375 v 6.90625 h -1.6875 v -6.71875 q 0,-1.09375 -0.59375,-1.6875 -0.57812,-0.59375 -1.57812,-0.59375 -1.04687,0 -1.65624,0.64062 -0.60938,0.64063 -0.60938,1.82813 v 6.53125 z m 16.19374,0 q -1.32812,0 -2.0625,-0.70313 -0.73437,-0.71875 -0.73437,-2 v -6.03125 h -2.89063 v -1.53125 h 2.89063 v -2.89062 h 1.67187 v 2.89062 h 4.10938 v 1.53125 h -4.10938 v 6.03125 q 0,1.17188 1.125,1.17188 h 2.79688 v 1.53125 z m 9.17814,0.1875 q -1.625,0 -2.5625,-0.82813 -0.92188,-0.82812 -0.92188,-2.25 0,-1.4375 0.92188,-2.25 0.9375,-0.82812 2.53125,-0.82812 h 3.15625 v -1.03125 q 0,-0.95313 -0.5625,-1.45313 -0.5625,-0.51562 -1.60938,-0.51562 -0.92187,0 -1.54687,0.39062 -0.60938,0.375 -0.6875,1.01563 h -1.6875 q 0.17187,-1.3125 1.25,-2.09375 1.07812,-0.79688 2.70312,-0.79688 1.78125,0 2.79688,0.92188 1.03125,0.90625 1.03125,2.48437 v 7.04688 h -1.64063 v -1.95313 h -0.28125 l 0.28125,-0.28125 q 0,1.10938 -0.875,1.76563 -0.85937,0.65625 -2.29687,0.65625 z m 0.40625,-1.32813 q 1.20312,0 1.95312,-0.59375 0.76563,-0.59375 0.76563,-1.53125 v -1.45312 h -3.125 q -0.84375,0 -1.32813,0.46875 -0.48437,0.46875 -0.48437,1.26562 0,0.85938 0.57812,1.35938 0.59375,0.48437 1.64063,0.48437 z m 7.02188,1.14063 3.64062,-5.28125 -3.42187,-4.98438 h 1.98437 l 2.03125,3.17188 q 0.125,0.20312 0.25,0.45312 0.125,0.23438 0.1875,0.39063 0.0625,-0.15625 0.17188,-0.39063 0.125,-0.25 0.26562,-0.45312 l 2.04688,-3.17188 h 1.96875 l -3.42188,5 3.625,5.26563 h -1.98437 l -2.20313,-3.35938 q -0.125,-0.20312 -0.25,-0.46875 -0.125,-0.28125 -0.21875,-0.4375 -0.0625,0.15625 -0.20312,0.4375 -0.14063,0.26563 -0.29688,0.46875 l -2.21875,3.35938 z m 17.34063,-7.65625 q -0.6875,0 -1.10937,-0.375 -0.4375,-0.375 -0.4375,-1.01563 0,-0.64062 0.4375,-1.01562 0.42187,-0.39063 1.10937,-0.39063 0.71875,0 1.14063,0.39063 0.40625,0.375 0.40625,1.01562 0,0.64063 -0.40625,1.01563 -0.42188,0.375 -1.14063,0.375 z m 0,7.84375 q -0.6875,0 -1.10937,-0.375 -0.4375,-0.39063 -0.4375,-1.03125 0,-0.625 0.4375,-1 0.42187,-0.39063 1.10937,-0.39063 0.71875,0 1.14063,0.39063 0.40625,0.375 0.40625,1 0,0.64062 -0.40625,1.03125 -0.42188,0.375 -1.14063,0.375 z m 8.20313,-7.84375 q -0.6875,0 -1.125,-0.375 -0.42188,-0.375 -0.42188,-1.01563 0,-0.64062 0.42188,-1.01562 0.4375,-0.39063 1.125,-0.39063 0.71875,0 1.125,0.39063 0.42187,0.375 0.42187,1.01562 0,0.64063 -0.42187,1.01563 -0.40625,0.375 -1.125,0.375 z m 0,7.84375 q -0.6875,0 -1.125,-0.375 -0.42188,-0.39063 -0.42188,-1.03125 0,-0.625 0.42188,-1 0.4375,-0.39063 1.125,-0.39063 0.71875,0 1.125,0.39063 0.42187,0.375 0.42187,1 0,0.64062 -0.42187,1.03125 -0.40625,0.375 -1.125,0.375 z m 12.38125,-0.0312 q -1.04687,0 -1.82812,-0.32813 -0.76563,-0.32812 -1.23438,-0.92187 -0.45312,-0.60938 -0.54687,-1.42188 h 1.6875 q 0.10937,0.53125 0.59375,0.85938 0.5,0.3125 1.32812,0.3125 h 0.78125 q 0.98438,0 1.46875,-0.39063 0.48438,-0.40625 0.48438,-1.07812 0,-0.65625 -0.4375,-1.03125 -0.4375,-0.39063 -1.29688,-0.51563 l -1.375,-0.23437 q -1.51562,-0.25 -2.25,-0.9375 -0.73437,-0.6875 -0.73437,-1.98438 0,-1.39062 0.875,-2.14062 0.875,-0.75 2.625,-0.75 h 0.71875 q 1.46875,0 2.35937,0.6875 0.90625,0.6875 1.09375,1.85937 h -1.6875 q -0.10937,-0.48437 -0.5625,-0.76562 -0.4375,-0.29688 -1.20312,-0.29688 h -0.71875 q -0.9375,0 -1.39063,0.35938 -0.4375,0.35937 -0.4375,1.0625 0,0.64062 0.375,0.9375 0.375,0.29687 1.1875,0.42187 l 1.375,0.23438 q 1.65625,0.25 2.40625,0.96875 0.76563,0.70312 0.76563,2.04687 0,1.42188 -0.90625,2.23438 -0.90625,0.8125 -2.73438,0.8125 z m 11.49064,0.0312 q -1.76563,0 -2.84375,-1.04688 -1.0625,-1.0625 -1.0625,-2.875 v -6.53125 h 1.6875 v 6.53125 q 0,1.15625 0.59375,1.8125 0.59375,0.64063 1.625,0.64063 1.04687,0 1.64062,-0.64063 0.60938,-0.65625 0.60938,-1.8125 v -6.53125 h 1.6875 v 6.53125 q 0,1.8125 -1.09375,2.875 -1.07813,1.04688 -2.84375,1.04688 z m 7.69375,-0.1875 v -10.26563 h 1.64063 v 1.96875 h 0.39062 l -0.54687,1.20313 q 0,-1.65625 0.71875,-2.5 0.71875,-0.85938 2.14062,-0.85938 1.625,0 2.57813,1.03125 0.96875,1.01563 0.96875,2.75 v 0.60938 h -1.6875 v -0.46875 q 0,-1.21875 -0.59375,-1.85938 -0.57813,-0.64062 -1.65625,-0.64062 -1.0625,0 -1.67188,0.65625 -0.60937,0.65625 -0.60937,1.84375 v 6.53125 z m 13.22501,0 v -7.70313 h -2.98438 v -1.53125 h 2.98438 v -1.76562 q 0,-1.21875 0.76562,-1.92188 0.76563,-0.70312 2.10938,-0.70312 h 3 v 1.53125 h -3 q -0.57813,0 -0.89063,0.28125 -0.3125,0.26562 -0.3125,0.8125 v 1.76562 h 4.20313 v 1.53125 h -4.20313 v 7.70313 z m 11.7875,0.1875 q -1.625,0 -2.5625,-0.82813 -0.92187,-0.82812 -0.92187,-2.25 0,-1.4375 0.92187,-2.25 0.9375,-0.82812 2.53125,-0.82812 h 3.15625 v -1.03125 q 0,-0.95313 -0.5625,-1.45313 -0.5625,-0.51562 -1.60937,-0.51562 -0.92188,0 -1.54688,0.39062 -0.60937,0.375 -0.6875,1.01563 h -1.6875 q 0.17188,-1.3125 1.25,-2.09375 1.07813,-0.79688 2.70313,-0.79688 1.78125,0 2.79687,0.92188 1.03125,0.90625 1.03125,2.48437 v 7.04688 h -1.64062 v -1.95313 h -0.28125 l 0.28125,-0.28125 q 0,1.10938 -0.875,1.76563 -0.85938,0.65625 -2.29688,0.65625 z m 0.40625,-1.32813 q 1.20313,0 1.95313,-0.59375 0.76562,-0.59375 0.76562,-1.53125 v -1.45312 h -3.125 q -0.84375,0 -1.32812,0.46875 -0.48438,0.46875 -0.48438,1.26562 0,0.85938 0.57813,1.35938 0.59375,0.48437 1.64062,0.48437 z m 11.75626,1.32813 q -1.23438,0 -2.15625,-0.46875 -0.92188,-0.46875 -1.4375,-1.34375 -0.5,-0.89063 -0.5,-2.10938 v -2.79687 q 0,-1.23438 0.5,-2.10938 0.51562,-0.875 1.4375,-1.34375 0.92187,-0.46875 2.15625,-0.46875 1.76562,0 2.84375,0.95313 1.09375,0.95312 1.14062,2.59375 h -1.67187 q -0.0625,-0.98438 -0.67188,-1.51563 -0.59375,-0.53125 -1.64062,-0.53125 -1.09375,0 -1.75,0.625 -0.65625,0.625 -0.65625,1.78125 v 2.8125 q 0,1.15625 0.65625,1.79688 0.65625,0.625 1.75,0.625 1.04687,0 1.64062,-0.53125 0.60938,-0.54688 0.67188,-1.51563 h 1.67187 q -0.0469,1.64063 -1.14062,2.59375 -1.07813,0.95313 -2.84375,0.95313 z m 11.11563,0 q -1.20312,0 -2.10937,-0.48438 -0.90625,-0.48437 -1.40625,-1.375 -0.5,-0.89062 -0.5,-2.0625 v -2.79687 q 0,-1.1875 0.5,-2.0625 0.5,-0.89063 1.40625,-1.375 0.90625,-0.48438 2.10937,-0.48438 1.21875,0 2.125,0.48438 0.90625,0.48437 1.39063,1.375 0.5,0.875 0.5,2.0625 v 1.8125 h -6.375 v 0.98437 q 0,1.21875 0.60937,1.85938 0.60938,0.64062 1.75,0.64062 0.96875,0 1.5625,-0.34375 0.60938,-0.34375 0.73438,-1.03125 h 1.6875 q -0.17188,1.28125 -1.26563,2.04688 -1.09375,0.75 -2.71875,0.75 z m 2.375,-6.03125 v -0.6875 q 0,-1.21875 -0.60937,-1.85938 -0.60938,-0.65625 -1.76563,-0.65625 -1.14062,0 -1.75,0.65625 -0.60937,0.64063 -0.60937,1.85938 v 0.54687 h 4.85937 z"
       fill-rule="nonzero"
       id="path9" />
    <path
       fill="#d9d9d9"
       d="M 744.47782,68.460981 H 947.18644 V 110.47674 H 744.47782 Z"
       fill-rule="evenodd"
       id="path11" />
    <path
       fill="#000000"
       d="m 760.39142,95.380981 v -7.70313 h -2.98437 v -1.53125 h 2.98437 v -1.76562 q 0,-1.21875 0.76563,-1.92188 0.76562,-0.70312 2.10937,-0.70312 h 3 v 1.53125 h -3 q -0.57812,0 -0.89062,0.28125 -0.3125,0.26562 -0.3125,0.8125 v 1.76562 h 4.20312 v 1.53125 h -4.20312 v 7.70313 z m 14.08441,0 q -0.90625,0 -1.57812,-0.34375 -0.67188,-0.35938 -1.04688,-1.01563 -0.35937,-0.65625 -0.35937,-1.53125 v -9.20312 h -3.45313 v -1.53125 h 5.125 v 10.73437 q 0,0.64063 0.35938,1 0.35937,0.35938 0.95312,0.35938 h 3.26563 v 1.53125 z m 9.77185,0.1875 q -1.76562,0 -2.84375,-1.04688 -1.0625,-1.0625 -1.0625,-2.875 v -6.53125 h 1.6875 v 6.53125 q 0,1.15625 0.59375,1.8125 0.59375,0.64063 1.625,0.64063 1.04688,0 1.64063,-0.64063 0.60937,-0.65625 0.60937,-1.8125 v -6.53125 h 1.6875 v 6.53125 q 0,1.8125 -1.09375,2.875 -1.07812,1.04688 -2.84375,1.04688 z m 6.55316,-0.1875 3.64063,-5.28125 -3.42188,-4.98438 h 1.98438 l 2.03125,3.17188 q 0.125,0.20312 0.25,0.45312 0.125,0.23438 0.1875,0.39063 0.0625,-0.15625 0.17187,-0.39063 0.125,-0.25 0.26563,-0.45312 l 2.04687,-3.17188 h 1.96875 l -3.42187,5 3.625,5.26563 h -1.98438 l -2.20312,-3.35938 q -0.125,-0.20312 -0.25,-0.46875 -0.125,-0.28125 -0.21875,-0.4375 -0.0625,0.15625 -0.20313,0.4375 -0.14062,0.26563 -0.29687,0.46875 l -2.21875,3.35938 z m 11.38123,1.85937 v -1.39062 h 8.95313 v 1.39062 z m 11.30316,-1.85937 v -10.26563 h 1.46875 v 1.23438 h 0.34375 l -0.26562,0.45312 q 0,-0.85937 0.45312,-1.35937 0.45313,-0.51563 1.25,-0.51563 0.84375,0 1.3125,0.64063 0.46875,0.64062 0.46875,1.79687 l -0.5,-1.01562 h 0.78125 l -0.35937,0.45312 q 0,-0.85937 0.46875,-1.35937 0.48437,-0.51563 1.26562,-0.51563 0.98438,0 1.51563,0.73438 0.53125,0.71875 0.53125,1.92187 v 7.79688 h -1.5625 v -7.8125 q 0,-0.64063 -0.26563,-0.98438 -0.26562,-0.35937 -0.79687,-0.35937 -0.5,0 -0.79688,0.34375 -0.28125,0.34375 -0.28125,0.98437 v 7.82813 h -1.34375 v -7.8125 q 0,-0.65625 -0.29687,-1 -0.28125,-0.34375 -0.79688,-0.34375 -0.53125,0 -0.79687,0.34375 -0.25,0.34375 -0.25,0.98437 v 7.82813 z m 11.53748,0 v -1.53125 h 3.64062 v -7.20313 h -3.17187 v -1.53125 h 4.85937 v 8.73438 h 3.45313 v 1.53125 z m 4.29687,-12.10938 q -0.60937,0 -0.96875,-0.3125 -0.35937,-0.32812 -0.35937,-0.85937 0,-0.5625 0.35937,-0.89063 0.35938,-0.32812 0.96875,-0.32812 0.625,0 0.96875,0.32812 0.35938,0.32813 0.35938,0.89063 0,0.53125 -0.35938,0.85937 -0.34375,0.3125 -0.96875,0.3125 z m 10.31879,12.29688 q -1.53125,0 -2.48437,-1.01563 -0.9375,-1.03125 -0.9375,-2.79687 v -3 q 0,-1.76563 0.9375,-2.79688 0.9375,-1.03125 2.48437,-1.03125 1.26563,0 2.03125,0.70313 0.76563,0.6875 0.76563,1.84375 l -0.32813,-0.39063 h 0.35938 l -0.0312,-2.34375 v -2.98437 h 1.6875 v 13.625 h -1.6875 v -1.95313 h -0.32813 l 0.32813,-0.39062 q 0,1.17187 -0.76563,1.85937 -0.76562,0.67188 -2.03125,0.67188 z m 0.5625,-1.45313 q 1.04688,0 1.64063,-0.65625 0.59375,-0.65625 0.59375,-1.8125 v -2.79687 q 0,-1.15625 -0.59375,-1.8125 -0.59375,-0.65625 -1.64063,-0.65625 -1.0625,0 -1.6875,0.64062 -0.60937,0.64063 -0.60937,1.82813 v 2.79687 q 0,1.20313 0.60937,1.84375 0.625,0.625 1.6875,0.625 z m 10.63123,1.45313 q -1.53125,0 -2.48438,-1.01563 -0.9375,-1.03125 -0.9375,-2.79687 v -3 q 0,-1.76563 0.9375,-2.79688 0.9375,-1.03125 2.48438,-1.03125 1.26562,0 2.03125,0.70313 0.76562,0.6875 0.76562,1.84375 l -0.32812,-0.39063 h 0.35937 l -0.0312,-2.34375 v -2.98437 h 1.6875 v 13.625 h -1.6875 v -1.95313 h -0.32812 l 0.32812,-0.39062 q 0,1.17187 -0.76562,1.85937 -0.76563,0.67188 -2.03125,0.67188 z m 0.5625,-1.45313 q 1.04687,0 1.64062,-0.65625 0.59375,-0.65625 0.59375,-1.8125 v -2.79687 q 0,-1.15625 -0.59375,-1.8125 -0.59375,-0.65625 -1.64062,-0.65625 -1.0625,0 -1.6875,0.64062 -0.60938,0.64063 -0.60938,1.82813 v 2.79687 q 0,1.20313 0.60938,1.84375 0.625,0.625 1.6875,0.625 z m 12.63128,1.26563 q -0.90625,0 -1.57812,-0.34375 -0.67188,-0.35938 -1.04688,-1.01563 -0.35937,-0.65625 -0.35937,-1.53125 v -9.20312 h -3.45313 v -1.53125 h 5.125 v 10.73437 q 0,0.64063 0.35938,1 0.35937,0.35938 0.95312,0.35938 h 3.26563 v 1.53125 z m 9.78748,0.1875 q -1.20313,0 -2.10938,-0.48438 -0.90625,-0.48437 -1.40625,-1.375 -0.5,-0.89062 -0.5,-2.0625 v -2.79687 q 0,-1.1875 0.5,-2.0625 0.5,-0.89063 1.40625,-1.375 0.90625,-0.48438 2.10938,-0.48438 1.21875,0 2.125,0.48438 0.90625,0.48437 1.39062,1.375 0.5,0.875 0.5,2.0625 v 1.8125 h -6.375 v 0.98437 q 0,1.21875 0.60938,1.85938 0.60937,0.64062 1.75,0.64062 0.96875,0 1.5625,-0.34375 0.60937,-0.34375 0.73437,-1.03125 h 1.6875 q -0.17187,1.28125 -1.26562,2.04688 -1.09375,0.75 -2.71875,0.75 z m 2.375,-6.03125 v -0.6875 q 0,-1.21875 -0.60938,-1.85938 -0.60937,-0.65625 -1.76562,-0.65625 -1.14063,0 -1.75,0.65625 -0.60938,0.64063 -0.60938,1.85938 v 0.54687 h 4.85938 z m 10.30939,-1.8125 q -0.6875,0 -1.10938,-0.375 -0.4375,-0.375 -0.4375,-1.01563 0,-0.64062 0.4375,-1.01562 0.42188,-0.39063 1.10938,-0.39063 0.71875,0 1.14062,0.39063 0.40625,0.375 0.40625,1.01562 0,0.64063 -0.40625,1.01563 -0.42187,0.375 -1.14062,0.375 z m 0,7.84375 q -0.6875,0 -1.10938,-0.375 -0.4375,-0.39063 -0.4375,-1.03125 0,-0.625 0.4375,-1 0.42188,-0.39063 1.10938,-0.39063 0.71875,0 1.14062,0.39063 0.40625,0.375 0.40625,1 0,0.64062 -0.40625,1.03125 -0.42187,0.375 -1.14062,0.375 z m 8.20312,-7.84375 q -0.6875,0 -1.125,-0.375 -0.42187,-0.375 -0.42187,-1.01563 0,-0.64062 0.42187,-1.01562 0.4375,-0.39063 1.125,-0.39063 0.71875,0 1.125,0.39063 0.42188,0.375 0.42188,1.01562 0,0.64063 -0.42188,1.01563 -0.40625,0.375 -1.125,0.375 z m 0,7.84375 q -0.6875,0 -1.125,-0.375 -0.42187,-0.39063 -0.42187,-1.03125 0,-0.625 0.42187,-1 0.4375,-0.39063 1.125,-0.39063 0.71875,0 1.125,0.39063 0.42188,0.375 0.42188,1 0,0.64062 -0.42188,1.03125 -0.40625,0.375 -1.125,0.375 z m 9.17816,-0.1875 v -10.26563 h 1.64063 v 1.96875 h 0.39062 l -0.54687,1.20313 q 0,-1.65625 0.71875,-2.5 0.71875,-0.85938 2.14062,-0.85938 1.625,0 2.57813,1.03125 0.96875,1.01563 0.96875,2.75 v 0.60938 h -1.6875 v -0.46875 q 0,-1.21875 -0.59375,-1.85938 -0.57813,-0.64062 -1.65625,-0.64062 -1.0625,0 -1.67188,0.65625 -0.60937,0.65625 -0.60937,1.84375 v 6.53125 z m 15.83435,0 q -1.32812,0 -2.0625,-0.70313 -0.73437,-0.71875 -0.73437,-2 v -6.03125 h -2.89063 v -1.53125 h 2.89063 v -2.89062 h 1.67187 v 2.89062 h 4.10938 v 1.53125 h -4.10938 v 6.03125 q 0,1.17188 1.125,1.17188 h 2.79688 v 1.53125 z m 7.80317,3.35937 1.5,-4 -3.79688,-9.625 h 1.85938 l 2.39062,6.34375 q 0.125,0.32813 0.23438,0.76563 0.125,0.4375 0.1875,0.73437 0.0781,-0.29687 0.1875,-0.73437 0.10937,-0.4375 0.23437,-0.76563 l 2.23438,-6.34375 h 1.8125 l -5.0625,13.625 z"
       fill-rule="nonzero"
       id="path13" />
    <path
       fill="#d9d9d9"
       d="M 390.64052,68.460981 H 605.0027 V 110.47674 H 390.64052 Z"
       fill-rule="evenodd"
       id="path15" />
    <path
       fill="#000000"
       d="m 406.78409,95.380981 v -7.70313 h -2.98437 v -1.53125 h 2.98437 v -1.76562 q 0,-1.21875 0.76563,-1.92188 0.76562,-0.70312 2.10937,-0.70312 h 3 v 1.53125 h -3 q -0.57812,0 -0.89062,0.28125 -0.3125,0.26562 -0.3125,0.8125 v 1.76562 h 4.20312 v 1.53125 h -4.20312 v 7.70313 z m 14.08438,0 q -0.90625,0 -1.57812,-0.34375 -0.67188,-0.35938 -1.04688,-1.01563 -0.35937,-0.65625 -0.35937,-1.53125 v -9.20312 h -3.45313 v -1.53125 h 5.125 v 10.73437 q 0,0.64063 0.35938,1 0.35937,0.35938 0.95312,0.35938 h 3.26563 v 1.53125 z m 9.77188,0.1875 q -1.76562,0 -2.84375,-1.04688 -1.0625,-1.0625 -1.0625,-2.875 v -6.53125 h 1.6875 v 6.53125 q 0,1.15625 0.59375,1.8125 0.59375,0.64063 1.625,0.64063 1.04688,0 1.64063,-0.64063 0.60937,-0.65625 0.60937,-1.8125 v -6.53125 h 1.6875 v 6.53125 q 0,1.8125 -1.09375,2.875 -1.07812,1.04688 -2.84375,1.04688 z m 6.55313,-0.1875 3.64063,-5.28125 -3.42188,-4.98438 h 1.98438 l 2.03125,3.17188 q 0.125,0.20312 0.25,0.45312 0.125,0.23438 0.1875,0.39063 0.0625,-0.15625 0.17187,-0.39063 0.125,-0.25 0.26563,-0.45312 l 2.04687,-3.17188 h 1.96875 l -3.42187,5 3.625,5.26563 h -1.98438 l -2.20312,-3.35938 q -0.125,-0.20312 -0.25,-0.46875 -0.125,-0.28125 -0.21875,-0.4375 -0.0625,0.15625 -0.20313,0.4375 -0.14062,0.26563 -0.29687,0.46875 l -2.21875,3.35938 z m 11.38126,1.85937 v -1.39062 h 8.95312 v 1.39062 z m 11.30313,-1.85937 v -10.26563 h 1.46875 v 1.23438 h 0.34375 l -0.26562,0.45312 q 0,-0.85937 0.45312,-1.35937 0.45313,-0.51563 1.25,-0.51563 0.84375,0 1.3125,0.64063 0.46875,0.64062 0.46875,1.79687 l -0.5,-1.01562 h 0.78125 l -0.35937,0.45312 q 0,-0.85937 0.46875,-1.35937 0.48437,-0.51563 1.26562,-0.51563 0.98438,0 1.51563,0.73438 0.53125,0.71875 0.53125,1.92187 v 7.79688 h -1.5625 v -7.8125 q 0,-0.64063 -0.26563,-0.98438 -0.26562,-0.35937 -0.79687,-0.35937 -0.5,0 -0.79688,0.34375 -0.28125,0.34375 -0.28125,0.98437 v 7.82813 h -1.34375 v -7.8125 q 0,-0.65625 -0.29687,-1 -0.28125,-0.34375 -0.79688,-0.34375 -0.53125,0 -0.79687,0.34375 -0.25,0.34375 -0.25,0.98437 v 7.82813 z m 11.53751,0 v -1.53125 h 3.64062 v -7.20313 h -3.17187 v -1.53125 h 4.85937 v 8.73438 h 3.45313 v 1.53125 z m 4.29687,-12.10938 q -0.60937,0 -0.96875,-0.3125 -0.35937,-0.32812 -0.35937,-0.85937 0,-0.5625 0.35937,-0.89063 0.35938,-0.32812 0.96875,-0.32812 0.625,0 0.96875,0.32812 0.35938,0.32813 0.35938,0.89063 0,0.53125 -0.35938,0.85937 -0.34375,0.3125 -0.96875,0.3125 z m 10.31876,12.29688 q -1.53125,0 -2.48438,-1.01563 -0.9375,-1.03125 -0.9375,-2.79687 v -3 q 0,-1.76563 0.9375,-2.79688 0.9375,-1.03125 2.48438,-1.03125 1.26562,0 2.03125,0.70313 0.76562,0.6875 0.76562,1.84375 l -0.32812,-0.39063 h 0.35937 l -0.0312,-2.34375 v -2.98437 h 1.6875 v 13.625 h -1.6875 v -1.95313 h -0.32812 l 0.32812,-0.39062 q 0,1.17187 -0.76562,1.85937 -0.76563,0.67188 -2.03125,0.67188 z m 0.5625,-1.45313 q 1.04687,0 1.64062,-0.65625 0.59375,-0.65625 0.59375,-1.8125 v -2.79687 q 0,-1.15625 -0.59375,-1.8125 -0.59375,-0.65625 -1.64062,-0.65625 -1.0625,0 -1.6875,0.64062 -0.60938,0.64063 -0.60938,1.82813 v 2.79687 q 0,1.20313 0.60938,1.84375 0.625,0.625 1.6875,0.625 z m 10.63125,1.45313 q -1.53125,0 -2.48437,-1.01563 -0.9375,-1.03125 -0.9375,-2.79687 v -3 q 0,-1.76563 0.9375,-2.79688 0.9375,-1.03125 2.48437,-1.03125 1.26563,0 2.03125,0.70313 0.76563,0.6875 0.76563,1.84375 l -0.32813,-0.39063 h 0.35938 l -0.0312,-2.34375 v -2.98437 h 1.6875 v 13.625 h -1.6875 v -1.95313 h -0.32813 l 0.32813,-0.39062 q 0,1.17187 -0.76563,1.85937 -0.76562,0.67188 -2.03125,0.67188 z m 0.5625,-1.45313 q 1.04688,0 1.64063,-0.65625 0.59375,-0.65625 0.59375,-1.8125 v -2.79687 q 0,-1.15625 -0.59375,-1.8125 -0.59375,-0.65625 -1.64063,-0.65625 -1.0625,0 -1.6875,0.64062 -0.60937,0.64063 -0.60937,1.82813 v 2.79687 q 0,1.20313 0.60937,1.84375 0.625,0.625 1.6875,0.625 z m 12.63126,1.26563 q -0.90625,0 -1.57813,-0.34375 -0.67187,-0.35938 -1.04687,-1.01563 -0.35938,-0.65625 -0.35938,-1.53125 v -9.20312 h -3.45312 v -1.53125 h 5.125 v 10.73437 q 0,0.64063 0.35937,1 0.35938,0.35938 0.95313,0.35938 h 3.26562 v 1.53125 z m 9.78751,0.1875 q -1.20313,0 -2.10938,-0.48438 -0.90625,-0.48437 -1.40625,-1.375 -0.5,-0.89062 -0.5,-2.0625 v -2.79687 q 0,-1.1875 0.5,-2.0625 0.5,-0.89063 1.40625,-1.375 0.90625,-0.48438 2.10938,-0.48438 1.21875,0 2.125,0.48438 0.90625,0.48437 1.39062,1.375 0.5,0.875 0.5,2.0625 v 1.8125 h -6.375 v 0.98437 q 0,1.21875 0.60938,1.85938 0.60937,0.64062 1.75,0.64062 0.96875,0 1.5625,-0.34375 0.60937,-0.34375 0.73437,-1.03125 h 1.6875 q -0.17187,1.28125 -1.26562,2.04688 -1.09375,0.75 -2.71875,0.75 z m 2.375,-6.03125 v -0.6875 q 0,-1.21875 -0.60938,-1.85938 -0.60937,-0.65625 -1.76562,-0.65625 -1.14063,0 -1.75,0.65625 -0.60938,0.64063 -0.60938,1.85938 v 0.54687 h 4.85938 z m 10.30938,-1.8125 q -0.6875,0 -1.10937,-0.375 -0.4375,-0.375 -0.4375,-1.01563 0,-0.64062 0.4375,-1.01562 0.42187,-0.39063 1.10937,-0.39063 0.71875,0 1.14063,0.39063 0.40625,0.375 0.40625,1.01562 0,0.64063 -0.40625,1.01563 -0.42188,0.375 -1.14063,0.375 z m 0,7.84375 q -0.6875,0 -1.10937,-0.375 -0.4375,-0.39063 -0.4375,-1.03125 0,-0.625 0.4375,-1 0.42187,-0.39063 1.10937,-0.39063 0.71875,0 1.14063,0.39063 0.40625,0.375 0.40625,1 0,0.64062 -0.40625,1.03125 -0.42188,0.375 -1.14063,0.375 z m 8.20313,-7.84375 q -0.6875,0 -1.125,-0.375 -0.42188,-0.375 -0.42188,-1.01563 0,-0.64062 0.42188,-1.01562 0.4375,-0.39063 1.125,-0.39063 0.71875,0 1.125,0.39063 0.42187,0.375 0.42187,1.01562 0,0.64063 -0.42187,1.01563 -0.40625,0.375 -1.125,0.375 z m 0,7.84375 q -0.6875,0 -1.125,-0.375 -0.42188,-0.39063 -0.42188,-1.03125 0,-0.625 0.42188,-1 0.4375,-0.39063 1.125,-0.39063 0.71875,0 1.125,0.39063 0.42187,0.375 0.42187,1 0,0.64062 -0.42187,1.03125 -0.40625,0.375 -1.125,0.375 z m 11.20935,-0.1875 v -7.70313 h -2.98438 v -1.53125 h 2.98438 v -1.76562 q 0,-1.21875 0.76562,-1.92188 0.76563,-0.70312 2.10938,-0.70312 h 3 v 1.53125 h -3 q -0.57813,0 -0.89063,0.28125 -0.3125,0.26562 -0.3125,0.8125 v 1.76562 h 4.20313 v 1.53125 h -4.20313 v 7.70313 z m 8.80316,0 v -13.625 h 1.67188 v 3.35937 1.96875 h 0.35937 l -0.35937,0.39063 q 0,-1.21875 0.71875,-1.875 0.73437,-0.67188 2.03125,-0.67188 1.54687,0 2.45312,0.95313 0.92188,0.95312 0.92188,2.59375 v 6.90625 h -1.6875 v -6.71875 q 0,-1.09375 -0.59375,-1.70313 -0.57813,-0.60937 -1.57813,-0.60937 -1.04687,0 -1.65625,0.65625 -0.60937,0.65625 -0.60937,1.84375 v 6.53125 z m 11.0531,0 v -1.53125 h 3.64063 v -7.20313 h -3.17188 v -1.53125 h 4.85938 v 8.73438 h 3.45312 v 1.53125 z m 4.29688,-12.10938 q -0.60938,0 -0.96875,-0.3125 -0.35938,-0.32812 -0.35938,-0.85937 0,-0.5625 0.35938,-0.89063 0.35937,-0.32812 0.96875,-0.32812 0.625,0 0.96875,0.32812 0.35937,0.32813 0.35937,0.89063 0,0.53125 -0.35937,0.85937 -0.34375,0.3125 -0.96875,0.3125 z m 7.39691,12.10938 v -10.26563 h 1.64062 v 1.96875 h 0.39063 l -0.54688,1.20313 q 0,-1.65625 0.71875,-2.5 0.71875,-0.85938 2.14063,-0.85938 1.625,0 2.57812,1.03125 0.96875,1.01563 0.96875,2.75 v 0.60938 h -1.6875 v -0.46875 q 0,-1.21875 -0.59375,-1.85938 -0.57812,-0.64062 -1.65625,-0.64062 -1.0625,0 -1.67187,0.65625 -0.60938,0.65625 -0.60938,1.84375 v 6.53125 z"
       fill-rule="nonzero"
       id="path17" />
    <path
       fill="#000000"
       fill-opacity="0"
       d="M 267.08935,89.468861 H 390.6484"
       fill-rule="evenodd"
       id="path19" />
    <path
       stroke="#000000"
       stroke-width="1"
       stroke-linejoin="round"
       stroke-linecap="butt"
       d="M 267.08935,89.468861 H 384.6484"
       fill-rule="evenodd"
       id="path21" />
    <path
       fill="#000000"
       stroke="#000000"
       stroke-width="1"
       stroke-linecap="butt"
       d="m 384.64842,91.120591 4.53809,-1.65173 -4.53809,-1.65174 z"
       fill-rule="evenodd"
       id="path23" />
    <path
       fill="#000000"
       fill-opacity="0"
       d="M 261.90825,43.765461 H 395.8295 v 42.01575 H 261.90825 Z"
       fill-rule="evenodd"
       id="path25" />
    <path
       fill="#000000"
       d="m 290.21106,70.685461 v -1.21875 q -0.90625,1.4375 -2.70313,1.4375 -1.15625,0 -2.125,-0.64063 -0.96875,-0.64062 -1.5,-1.78125 -0.53125,-1.14062 -0.53125,-2.625 0,-1.45312 0.48438,-2.625 0.48437,-1.1875 1.4375,-1.8125 0.96875,-0.625 2.17187,-0.625 0.875,0 1.54688,0.375 0.6875,0.35938 1.10937,0.95313 v -4.79688 h 1.64063 v 13.35938 z m -5.17188,-4.82813 q 0,1.85938 0.78125,2.78125 0.78125,0.92188 1.84375,0.92188 1.07813,0 1.82813,-0.875 0.75,-0.89063 0.75,-2.6875 0,-1.98438 -0.76563,-2.90625 -0.76562,-0.9375 -1.89062,-0.9375 -1.07813,0 -1.8125,0.89062 -0.73438,0.89063 -0.73438,2.8125 z m 15.90696,1.71875 1.6875,0.20313 q -0.40625,1.48437 -1.48438,2.3125 -1.07812,0.8125 -2.76562,0.8125 -2.125,0 -3.375,-1.29688 -1.23438,-1.3125 -1.23438,-3.67187 0,-2.45313 1.25,-3.79688 1.26563,-1.34375 3.26563,-1.34375 1.9375,0 3.15625,1.32813 1.23437,1.3125 1.23437,3.70312 0,0.15625 0,0.4375 h -7.21875 q 0.0937,1.59375 0.90625,2.45313 0.8125,0.84375 2.01563,0.84375 0.90625,0 1.54687,-0.46875 0.64063,-0.48438 1.01563,-1.51563 z m -5.39063,-2.65625 h 5.40625 q -0.10937,-1.21875 -0.625,-1.82812 -0.78125,-0.95313 -2.03125,-0.95313 -1.125,0 -1.90625,0.76563 -0.76562,0.75 -0.84375,2.01562 z m 8.48511,2.875 1.625,-0.25 q 0.125,0.96875 0.75,1.5 0.625,0.51563 1.75,0.51563 1.125,0 1.67187,-0.45313 0.54688,-0.46875 0.54688,-1.09375 0,-0.54687 -0.48438,-0.875 -0.32812,-0.21875 -1.67187,-0.54687 -1.8125,-0.46875 -2.51563,-0.79688 -0.6875,-0.32812 -1.04687,-0.90625 -0.35938,-0.59375 -0.35938,-1.3125 0,-0.64062 0.29688,-1.1875 0.29687,-0.5625 0.8125,-0.92187 0.375,-0.28125 1.03125,-0.46875 0.67187,-0.20313 1.42187,-0.20313 1.14063,0 2,0.32813 0.85938,0.32812 1.26563,0.89062 0.42187,0.5625 0.57812,1.5 l -1.60937,0.21875 q -0.10938,-0.75 -0.64063,-1.17187 -0.51562,-0.42188 -1.46875,-0.42188 -1.14062,0 -1.625,0.375 -0.46875,0.375 -0.46875,0.875 0,0.3125 0.1875,0.57813 0.20313,0.26562 0.64063,0.4375 0.23437,0.0937 1.4375,0.42187 1.75,0.45313 2.4375,0.75 0.6875,0.29688 1.07812,0.85938 0.39063,0.5625 0.39063,1.40625 0,0.82812 -0.48438,1.54687 -0.46875,0.71875 -1.375,1.125 -0.90625,0.39063 -2.04687,0.39063 -1.875,0 -2.875,-0.78125 -0.98438,-0.78125 -1.25,-2.32813 z m 16.3125,2.89063 v -1.42188 q -1.125,1.64063 -3.0625,1.64063 -0.85938,0 -1.60938,-0.32813 -0.73437,-0.32812 -1.09375,-0.82812 -0.35937,-0.5 -0.5,-1.21875 -0.10937,-0.46875 -0.10937,-1.53125 v -5.98438 h 1.64062 v 5.35938 q 0,1.28125 0.10938,1.73437 0.15625,0.64063 0.65625,1.01563 0.5,0.375 1.23437,0.375 0.73438,0 1.375,-0.375 0.65625,-0.39063 0.92188,-1.03125 0.26562,-0.65625 0.26562,-1.89063 v -5.1875 h 1.64063 v 9.67188 z m 3.73508,0.79687 1.59375,0.23438 q 0.10937,0.75 0.5625,1.07812 0.60937,0.45313 1.67187,0.45313 1.14063,0 1.75,-0.45313 0.625,-0.45312 0.84375,-1.26562 0.125,-0.5 0.10938,-2.10938 -1.0625,1.26563 -2.67188,1.26563 -2,0 -3.09375,-1.4375 -1.09375,-1.4375 -1.09375,-3.45313 0,-1.39062 0.5,-2.5625 0.51563,-1.17187 1.45313,-1.79687 0.95312,-0.64063 2.25,-0.64063 1.70312,0 2.8125,1.375 v -1.15625 h 1.51562 v 8.35938 q 0,2.26562 -0.46875,3.20312 -0.45312,0.9375 -1.45312,1.48438 -0.98438,0.54687 -2.45313,0.54687 -1.71875,0 -2.79687,-0.78125 -1.0625,-0.76562 -1.03125,-2.34375 z m 1.35937,-5.8125 q 0,1.90625 0.75,2.78125 0.76563,0.875 1.90625,0.875 1.125,0 1.89063,-0.85937 0.76562,-0.875 0.76562,-2.73438 0,-1.78125 -0.79687,-2.67187 -0.78125,-0.90625 -1.89063,-0.90625 -1.09375,0 -1.85937,0.89062 -0.76563,0.875 -0.76563,2.625 z m 15.64136,3.82813 q -0.92188,0.76562 -1.76563,1.09375 -0.82812,0.3125 -1.79687,0.3125 -1.59375,0 -2.45313,-0.78125 -0.85937,-0.78125 -0.85937,-1.98438 0,-0.71875 0.32812,-1.29687 0.32813,-0.59375 0.84375,-0.9375 0.53125,-0.35938 1.1875,-0.54688 0.46875,-0.125 1.45313,-0.25 1.98437,-0.23437 2.92187,-0.5625 0.0156,-0.34375 0.0156,-0.42187 0,-1 -0.46875,-1.42188 -0.625,-0.54687 -1.875,-0.54687 -1.15625,0 -1.70313,0.40625 -0.54687,0.40625 -0.8125,1.42187 l -1.60937,-0.21875 q 0.21875,-1.01562 0.71875,-1.64062 0.5,-0.64063 1.45312,-0.98438 0.95313,-0.34375 2.1875,-0.34375 1.25,0 2.01563,0.29688 0.78125,0.28125 1.14062,0.73437 0.375,0.4375 0.51563,1.10938 0.0781,0.42187 0.0781,1.51562 v 2.1875 q 0,2.28125 0.10938,2.89063 0.10937,0.59375 0.40625,1.15625 H 341.417 q -0.26562,-0.51563 -0.32812,-1.1875 z m -0.14063,-3.67188 q -0.89062,0.375 -2.67187,0.625 -1.01563,0.14063 -1.4375,0.32813 -0.42188,0.1875 -0.65625,0.53125 -0.21875,0.34375 -0.21875,0.78125 0,0.65625 0.5,1.09375 0.5,0.4375 1.45312,0.4375 0.9375,0 1.67188,-0.40625 0.75,-0.42188 1.09375,-1.14063 0.26562,-0.5625 0.26562,-1.64062 z m 4.1882,4.85938 v -9.67188 h 1.46875 v 1.46875 q 0.5625,-1.03125 1.03125,-1.35937 0.48438,-0.32813 1.0625,-0.32813 0.82813,0 1.6875,0.53125 l -0.5625,1.51563 q -0.60937,-0.35938 -1.20312,-0.35938 -0.54688,0 -0.96875,0.32813 -0.42188,0.32812 -0.60938,0.89062 -0.28125,0.875 -0.28125,1.92188 v 5.0625 z m 6.22831,-11.46875 v -1.89063 h 1.64062 v 1.89063 z m 0,11.46875 v -9.67188 h 1.64062 v 9.67188 z m 4.14483,0 v -9.67188 h 1.46875 v 1.375 q 1.0625,-1.59375 3.07813,-1.59375 0.875,0 1.60937,0.3125 0.73438,0.3125 1.09375,0.82813 0.375,0.5 0.51563,1.20312 0.0937,0.45313 0.0937,1.59375 v 5.95313 h -1.64063 v -5.89063 q 0,-1 -0.20312,-1.48437 -0.1875,-0.5 -0.67188,-0.79688 -0.48437,-0.29687 -1.14062,-0.29687 -1.04688,0 -1.8125,0.67187 -0.75,0.65625 -0.75,2.51563 v 5.28125 z m 10.06321,0.79687 1.59375,0.23438 q 0.10937,0.75 0.5625,1.07812 0.60937,0.45313 1.67187,0.45313 1.14063,0 1.75,-0.45313 0.625,-0.45312 0.84375,-1.26562 0.125,-0.5 0.10938,-2.10938 -1.0625,1.26563 -2.67188,1.26563 -2,0 -3.09375,-1.4375 -1.09375,-1.4375 -1.09375,-3.45313 0,-1.39062 0.5,-2.5625 0.51563,-1.17187 1.45313,-1.79687 0.95312,-0.64063 2.25,-0.64063 1.70312,0 2.8125,1.375 v -1.15625 h 1.51562 v 8.35938 q 0,2.26562 -0.46875,3.20312 -0.45312,0.9375 -1.45312,1.48438 -0.98438,0.54687 -2.45313,0.54687 -1.71875,0 -2.79687,-0.78125 -1.0625,-0.76562 -1.03125,-2.34375 z m 1.35937,-5.8125 q 0,1.90625 0.75,2.78125 0.76563,0.875 1.90625,0.875 1.125,0 1.89063,-0.85937 0.76562,-0.875 0.76562,-2.73438 0,-1.78125 -0.79687,-2.67187 -0.78125,-0.90625 -1.89063,-0.90625 -1.09375,0 -1.85937,0.89062 -0.76563,0.875 -0.76563,2.625 z"
       fill-rule="nonzero"
       id="path27" />
    <path
       fill="#000000"
       fill-opacity="0"
       d="m 605.00272,89.468861 h 139.4646"
       fill-rule="evenodd"
       id="path29" />
    <path
       stroke="#000000"
       stroke-width="1"
       stroke-linejoin="round"
       stroke-linecap="butt"
       d="m 605.00272,89.468861 h 133.4646"
       fill-rule="evenodd"
       id="path31" />
    <path
       fill="#000000"
       stroke="#000000"
       stroke-width="1"
       stroke-linecap="butt"
       d="m 738.46732,91.120591 4.53809,-1.65173 -4.53809,-1.65174 z"
       fill-rule="evenodd"
       id="path33" />
    <path
       fill="#000000"
       fill-opacity="0"
       d="m 607.77962,47.453111 h 133.92126 v 42.01575 H 607.77962 Z"
       fill-rule="evenodd"
       id="path35" />
    <path
       fill="#000000"
       d="m 637.17692,70.826241 1.60937,0.21875 q -0.26562,1.65625 -1.35937,2.60937 -1.07813,0.9375 -2.67188,0.9375 -1.98437,0 -3.1875,-1.29687 -1.20312,-1.29688 -1.20312,-3.71875 0,-1.57813 0.51562,-2.75 0.51563,-1.17188 1.57813,-1.75 1.0625,-0.59375 2.3125,-0.59375 1.57812,0 2.57812,0.79687 1,0.79688 1.28125,2.26563 l -1.59375,0.23437 q -0.23437,-0.96875 -0.8125,-1.45312 -0.57812,-0.5 -1.39062,-0.5 -1.23438,0 -2.01563,0.89062 -0.78125,0.89063 -0.78125,2.8125 0,1.95313 0.75,2.84375 0.75,0.875 1.95313,0.875 0.96875,0 1.60937,-0.59375 0.65625,-0.59375 0.82813,-1.82812 z m 2.40625,-1.29688 q 0,-2.6875 1.48437,-3.96875 1.25,-1.07812 3.04688,-1.07812 2,0 3.26562,1.3125 1.26563,1.29687 1.26563,3.60937 0,1.85938 -0.5625,2.9375 -0.5625,1.0625 -1.64063,1.65625 -1.0625,0.59375 -2.32812,0.59375 -2.03125,0 -3.28125,-1.29687 -1.25,-1.3125 -1.25,-3.76563 z m 1.6875,0 q 0,1.85938 0.79687,2.79688 0.8125,0.92187 2.04688,0.92187 1.21875,0 2.03125,-0.92187 0.8125,-0.9375 0.8125,-2.84375 0,-1.79688 -0.8125,-2.71875 -0.8125,-0.92188 -2.03125,-0.92188 -1.23438,0 -2.04688,0.92188 -0.79687,0.90625 -0.79687,2.76562 z m 9.29761,4.84375 v -9.67187 h 1.46875 v 1.375 q 1.0625,-1.59375 3.07812,-1.59375 0.875,0 1.60938,0.3125 0.73437,0.3125 1.09375,0.82812 0.375,0.5 0.51562,1.20313 0.0937,0.45312 0.0937,1.59375 v 5.95312 h -1.64062 v -5.89062 q 0,-1 -0.20313,-1.48438 -0.1875,-0.5 -0.67187,-0.79687 -0.48438,-0.29688 -1.14063,-0.29688 -1.04687,0 -1.8125,0.67188 -0.75,0.65625 -0.75,2.51562 v 5.28125 z m 13.06323,0 -3.6875,-9.67187 h 1.73437 l 2.07813,5.79687 q 0.32812,0.9375 0.625,1.9375 0.20312,-0.76562 0.60937,-1.82812 l 2.14063,-5.90625 h 1.6875 l -3.65625,9.67187 z m 13.26562,-3.10937 1.6875,0.20312 q -0.40625,1.48438 -1.48437,2.3125 -1.07813,0.8125 -2.76563,0.8125 -2.125,0 -3.375,-1.29687 -1.23437,-1.3125 -1.23437,-3.67188 0,-2.45312 1.25,-3.79687 1.26562,-1.34375 3.26562,-1.34375 1.9375,0 3.15625,1.32812 1.23438,1.3125 1.23438,3.70313 0,0.15625 0,0.4375 h -7.21875 q 0.0937,1.59375 0.90625,2.45312 0.8125,0.84375 2.01562,0.84375 0.90625,0 1.54688,-0.46875 0.64062,-0.48437 1.01562,-1.51562 z m -5.39062,-2.65625 h 5.40625 q -0.10938,-1.21875 -0.625,-1.82813 -0.78125,-0.95312 -2.03125,-0.95312 -1.125,0 -1.90625,0.76562 -0.76563,0.75 -0.84375,2.01563 z m 9.12567,5.76562 v -9.67187 h 1.46875 v 1.46875 q 0.5625,-1.03125 1.03125,-1.35938 0.48437,-0.32812 1.0625,-0.32812 0.82812,0 1.6875,0.53125 l -0.5625,1.51562 q -0.60938,-0.35937 -1.20313,-0.35937 -0.54687,0 -0.96875,0.32812 -0.42187,0.32813 -0.60937,0.89063 -0.28125,0.875 -0.28125,1.92187 v 5.0625 z m 5.57208,-2.89062 1.625,-0.25 q 0.125,0.96875 0.75,1.5 0.625,0.51562 1.75,0.51562 1.125,0 1.67188,-0.45312 0.54687,-0.46875 0.54687,-1.09375 0,-0.54688 -0.48437,-0.875 -0.32813,-0.21875 -1.67188,-0.54688 -1.8125,-0.46875 -2.51562,-0.79687 -0.6875,-0.32813 -1.04688,-0.90625 -0.35937,-0.59375 -0.35937,-1.3125 0,-0.64063 0.29687,-1.1875 0.29688,-0.5625 0.8125,-0.92188 0.375,-0.28125 1.03125,-0.46875 0.67188,-0.20312 1.42188,-0.20312 1.14062,0 2,0.32812 0.85937,0.32813 1.26562,0.89063 0.42188,0.5625 0.57813,1.5 l -1.60938,0.21875 q -0.10937,-0.75 -0.64062,-1.17188 -0.51563,-0.42187 -1.46875,-0.42187 -1.14063,0 -1.625,0.375 -0.46875,0.375 -0.46875,0.875 0,0.3125 0.1875,0.57812 0.20312,0.26563 0.64062,0.4375 0.23438,0.0937 1.4375,0.42188 1.75,0.45312 2.4375,0.75 0.6875,0.29687 1.07813,0.85937 0.39062,0.5625 0.39062,1.40625 0,0.82813 -0.48437,1.54688 -0.46875,0.71875 -1.375,1.125 -0.90625,0.39062 -2.04688,0.39062 -1.875,0 -2.875,-0.78125 -0.98437,-0.78125 -1.25,-2.32812 z m 9.98438,-8.57813 v -1.89062 h 1.64062 v 1.89062 z m 0,11.46875 v -9.67187 h 1.64062 v 9.67187 z m 3.53546,-4.84375 q 0,-2.6875 1.48437,-3.96875 1.25,-1.07812 3.04688,-1.07812 2,0 3.26562,1.3125 1.26563,1.29687 1.26563,3.60937 0,1.85938 -0.5625,2.9375 -0.5625,1.0625 -1.64063,1.65625 -1.0625,0.59375 -2.32812,0.59375 -2.03125,0 -3.28125,-1.29687 -1.25,-1.3125 -1.25,-3.76563 z m 1.6875,0 q 0,1.85938 0.79687,2.79688 0.8125,0.92187 2.04688,0.92187 1.21875,0 2.03125,-0.92187 0.8125,-0.9375 0.8125,-2.84375 0,-1.79688 -0.8125,-2.71875 -0.8125,-0.92188 -2.03125,-0.92188 -1.23438,0 -2.04688,0.92188 -0.79687,0.90625 -0.79687,2.76562 z m 9.29754,4.84375 v -9.67187 h 1.46875 v 1.375 q 1.0625,-1.59375 3.07813,-1.59375 0.875,0 1.60937,0.3125 0.73438,0.3125 1.09375,0.82812 0.375,0.5 0.51563,1.20313 0.0937,0.45312 0.0937,1.59375 v 5.95312 h -1.64063 v -5.89062 q 0,-1 -0.20312,-1.48438 -0.1875,-0.5 -0.67188,-0.79687 -0.48437,-0.29688 -1.14062,-0.29688 -1.04688,0 -1.8125,0.67188 -0.75,0.65625 -0.75,2.51562 v 5.28125 z"
       fill-rule="nonzero"
       id="path37" />
    <path
       fill="#d9d9d9"
       d="M 671.70092,293.28253 H 886.0631 v 42.01575 H 671.70092 Z"
       fill-rule="evenodd"
       id="path39" />
    <path
       fill="#000000"
       d="m 691.41006,320.20251 v -10.26563 h 1.64063 v 1.96875 h 0.39062 l -0.54687,1.20313 q 0,-1.65625 0.71875,-2.5 0.71875,-0.85938 2.14062,-0.85938 1.625,0 2.57813,1.03125 0.96875,1.01563 0.96875,2.75 v 0.60938 h -1.6875 v -0.46875 q 0,-1.21875 -0.59375,-1.85938 -0.57813,-0.64062 -1.65625,-0.64062 -1.0625,0 -1.67188,0.65625 -0.60937,0.65625 -0.60937,1.84375 v 6.53125 z m 14.69379,0.1875 q -1.76563,0 -2.84375,-1.04688 -1.0625,-1.0625 -1.0625,-2.875 v -6.53125 h 1.6875 v 6.53125 q 0,1.15625 0.59375,1.8125 0.59375,0.64063 1.625,0.64063 1.04687,0 1.64062,-0.64063 0.60938,-0.65625 0.60938,-1.8125 v -6.53125 h 1.6875 v 6.53125 q 0,1.8125 -1.09375,2.875 -1.07813,1.04688 -2.84375,1.04688 z m 10.89685,-0.0312 q -1.04688,0 -1.82813,-0.32813 -0.76562,-0.32812 -1.23437,-0.92187 -0.45313,-0.60938 -0.54688,-1.42188 h 1.6875 q 0.10938,0.53125 0.59375,0.85938 0.5,0.3125 1.32813,0.3125 h 0.78125 q 0.98437,0 1.46875,-0.39063 0.48437,-0.40625 0.48437,-1.07812 0,-0.65625 -0.4375,-1.03125 -0.4375,-0.39063 -1.29687,-0.51563 l -1.375,-0.23437 q -1.51563,-0.25 -2.25,-0.9375 -0.73438,-0.6875 -0.73438,-1.98438 0,-1.39062 0.875,-2.14062 0.875,-0.75 2.625,-0.75 h 0.71875 q 1.46875,0 2.35938,0.6875 0.90625,0.6875 1.09375,1.85937 h -1.6875 q -0.10938,-0.48437 -0.5625,-0.76562 -0.4375,-0.29688 -1.20313,-0.29688 h -0.71875 q -0.9375,0 -1.39062,0.35938 -0.4375,0.35937 -0.4375,1.0625 0,0.64062 0.375,0.9375 0.375,0.29687 1.1875,0.42187 l 1.375,0.23438 q 1.65625,0.25 2.40625,0.96875 0.76562,0.70312 0.76562,2.04687 0,1.42188 -0.90625,2.23438 -0.90625,0.8125 -2.73437,0.8125 z m 12.63129,-0.15625 q -1.32813,0 -2.0625,-0.70313 -0.73438,-0.71875 -0.73438,-2 v -6.03125 h -2.89062 v -1.53125 h 2.89062 v -2.89062 h 1.67188 v 2.89062 h 4.10937 v 1.53125 h -4.10937 v 6.03125 q 0,1.17188 1.125,1.17188 h 2.79687 v 1.53125 z m 10.14685,0.1875 q -1.23438,0 -2.15625,-0.46875 -0.92188,-0.46875 -1.4375,-1.34375 -0.5,-0.89063 -0.5,-2.10938 v -2.79687 q 0,-1.23438 0.5,-2.10938 0.51562,-0.875 1.4375,-1.34375 0.92187,-0.46875 2.15625,-0.46875 1.76562,0 2.84375,0.95313 1.09375,0.95312 1.14062,2.59375 h -1.67187 q -0.0625,-0.98438 -0.67188,-1.51563 -0.59375,-0.53125 -1.64062,-0.53125 -1.09375,0 -1.75,0.625 -0.65625,0.625 -0.65625,1.78125 v 2.8125 q 0,1.15625 0.65625,1.79688 0.65625,0.625 1.75,0.625 1.04687,0 1.64062,-0.53125 0.60938,-0.54688 0.67188,-1.51563 h 1.67187 q -0.0469,1.64063 -1.14062,2.59375 -1.07813,0.95313 -2.84375,0.95313 z m 6.64691,1.67187 v -1.39062 h 8.95312 v 1.39062 z m 11.3031,-1.85937 v -10.26563 h 1.46875 v 1.23438 h 0.34375 l -0.26563,0.45312 q 0,-0.85937 0.45313,-1.35937 0.45312,-0.51563 1.25,-0.51563 0.84375,0 1.3125,0.64063 0.46875,0.64062 0.46875,1.79687 l -0.5,-1.01562 h 0.78125 l -0.35938,0.45312 q 0,-0.85937 0.46875,-1.35937 0.48438,-0.51563 1.26563,-0.51563 0.98437,0 1.51562,0.73438 0.53125,0.71875 0.53125,1.92187 v 7.79688 h -1.5625 v -7.8125 q 0,-0.64063 -0.26562,-0.98438 -0.26563,-0.35937 -0.79688,-0.35937 -0.5,0 -0.79687,0.34375 -0.28125,0.34375 -0.28125,0.98437 v 7.82813 h -1.34375 v -7.8125 q 0,-0.65625 -0.29688,-1 -0.28125,-0.34375 -0.79687,-0.34375 -0.53125,0 -0.79688,0.34375 -0.25,0.34375 -0.25,0.98437 v 7.82813 z m 11.53754,0 v -1.53125 h 3.64062 v -7.20313 h -3.17187 v -1.53125 h 4.85937 v 8.73438 h 3.45313 v 1.53125 z m 4.29687,-12.10938 q -0.60937,0 -0.96875,-0.3125 -0.35937,-0.32812 -0.35937,-0.85937 0,-0.5625 0.35937,-0.89063 0.35938,-0.32812 0.96875,-0.32812 0.625,0 0.96875,0.32812 0.35938,0.32813 0.35938,0.89063 0,0.53125 -0.35938,0.85937 -0.34375,0.3125 -0.96875,0.3125 z m 10.31873,12.29688 q -1.53125,0 -2.48438,-1.01563 -0.9375,-1.03125 -0.9375,-2.79687 v -3 q 0,-1.76563 0.9375,-2.79688 0.9375,-1.03125 2.48438,-1.03125 1.26562,0 2.03125,0.70313 0.76562,0.6875 0.76562,1.84375 l -0.32812,-0.39063 h 0.35937 l -0.0312,-2.34375 v -2.98437 h 1.6875 v 13.625 h -1.6875 v -1.95313 h -0.32812 l 0.32812,-0.39062 q 0,1.17187 -0.76562,1.85937 -0.76563,0.67188 -2.03125,0.67188 z m 0.5625,-1.45313 q 1.04687,0 1.64062,-0.65625 0.59375,-0.65625 0.59375,-1.8125 v -2.79687 q 0,-1.15625 -0.59375,-1.8125 -0.59375,-0.65625 -1.64062,-0.65625 -1.0625,0 -1.6875,0.64062 -0.60938,0.64063 -0.60938,1.82813 v 2.79687 q 0,1.20313 0.60938,1.84375 0.625,0.625 1.6875,0.625 z m 10.63128,1.45313 q -1.53125,0 -2.48437,-1.01563 -0.9375,-1.03125 -0.9375,-2.79687 v -3 q 0,-1.76563 0.9375,-2.79688 0.9375,-1.03125 2.48437,-1.03125 1.26563,0 2.03125,0.70313 0.76563,0.6875 0.76563,1.84375 l -0.32813,-0.39063 h 0.35938 l -0.0312,-2.34375 v -2.98437 h 1.6875 v 13.625 h -1.6875 v -1.95313 h -0.32818 l 0.32813,-0.39062 q 0,1.17187 -0.76563,1.85937 -0.76562,0.67188 -2.03125,0.67188 z m 0.5625,-1.45313 q 1.04688,0 1.64063,-0.65625 0.59375,-0.65625 0.59375,-1.8125 v -2.79687 q 0,-1.15625 -0.59375,-1.8125 -0.59375,-0.65625 -1.64063,-0.65625 -1.0625,0 -1.6875,0.64062 -0.60937,0.64063 -0.60937,1.82813 v 2.79687 q 0,1.20313 0.60937,1.84375 0.625,0.625 1.6875,0.625 z m 12.63123,1.26563 q -0.90625,0 -1.57813,-0.34375 -0.67187,-0.35938 -1.04687,-1.01563 -0.35938,-0.65625 -0.35938,-1.53125 v -9.20312 H 801.832 v -1.53125 h 5.125 v 10.73437 q 0,0.64063 0.35937,1 0.35938,0.35938 0.95313,0.35938 h 3.26562 v 1.53125 z m 9.78748,0.1875 q -1.20313,0 -2.10938,-0.48438 -0.90625,-0.48437 -1.40625,-1.375 -0.5,-0.89062 -0.5,-2.0625 v -2.79687 q 0,-1.1875 0.5,-2.0625 0.5,-0.89063 1.40625,-1.375 0.90625,-0.48438 2.10938,-0.48438 1.21875,0 2.125,0.48438 0.90625,0.48437 1.39062,1.375 0.5,0.875 0.5,2.0625 v 1.8125 h -6.375 v 0.98437 q 0,1.21875 0.60938,1.85938 0.60937,0.64062 1.75,0.64062 0.96875,0 1.5625,-0.34375 0.60937,-0.34375 0.73437,-1.03125 h 1.6875 q -0.17187,1.28125 -1.26562,2.04688 -1.09375,0.75 -2.71875,0.75 z m 2.375,-6.03125 v -0.6875 q 0,-1.21875 -0.60938,-1.85938 -0.60937,-0.65625 -1.76562,-0.65625 -1.14063,0 -1.75,0.65625 -0.60938,0.64063 -0.60938,1.85938 v 0.54687 h 4.85938 z m 10.30938,-1.8125 q -0.6875,0 -1.10937,-0.375 -0.4375,-0.375 -0.4375,-1.01563 0,-0.64062 0.4375,-1.01562 0.42187,-0.39063 1.10937,-0.39063 0.71875,0 1.14063,0.39063 0.40625,0.375 0.40625,1.01562 0,0.64063 -0.40625,1.01563 -0.42188,0.375 -1.14063,0.375 z m 0,7.84375 q -0.6875,0 -1.10937,-0.375 -0.4375,-0.39063 -0.4375,-1.03125 0,-0.625 0.4375,-1 0.42187,-0.39063 1.10937,-0.39063 0.71875,0 1.14063,0.39063 0.40625,0.375 0.40625,1 0,0.64062 -0.40625,1.03125 -0.42188,0.375 -1.14063,0.375 z m 8.20313,-7.84375 q -0.6875,0 -1.125,-0.375 -0.42188,-0.375 -0.42188,-1.01563 0,-0.64062 0.42188,-1.01562 0.4375,-0.39063 1.125,-0.39063 0.71875,0 1.125,0.39063 0.42187,0.375 0.42187,1.01562 0,0.64063 -0.42187,1.01563 -0.40625,0.375 -1.125,0.375 z m 0,7.84375 q -0.6875,0 -1.125,-0.375 -0.42188,-0.39063 -0.42188,-1.03125 0,-0.625 0.42188,-1 0.4375,-0.39063 1.125,-0.39063 0.71875,0 1.125,0.39063 0.42187,0.375 0.42187,1 0,0.64062 -0.42187,1.03125 -0.40625,0.375 -1.125,0.375 z m 13.81878,-0.1875 q -1.32812,0 -2.0625,-0.70313 -0.73437,-0.71875 -0.73437,-2 v -6.03125 h -2.89063 v -1.53125 h 2.89063 v -2.89062 h 1.67187 v 2.89062 h 4.10938 v 1.53125 h -4.10938 v 6.03125 q 0,1.17188 1.125,1.17188 h 2.79688 v 1.53125 z m 7.80311,3.35937 1.5,-4 -3.79688,-9.625 h 1.85938 l 2.39062,6.34375 q 0.125,0.32813 0.23438,0.76563 0.125,0.4375 0.1875,0.73437 0.0781,-0.29687 0.1875,-0.73437 0.10937,-0.4375 0.23437,-0.76563 l 2.23438,-6.34375 h 1.8125 l -5.0625,13.625 z"
       fill-rule="nonzero"
       id="path41" />
    <path
       fill="#d9d9d9"
       d="m 627.46469,186.17361 h 302.83466 v 42.01575 H 627.46469 Z"
       fill-rule="evenodd"
       id="path43" />
    <path
       fill="#000000"
       d="m 659.86008,213.09359 v -7.70313 h -2.98437 v -1.53125 h 2.98437 v -1.76562 q 0,-1.21875 0.76563,-1.92188 0.76562,-0.70312 2.10937,-0.70312 h 3 v 1.53125 h -3 q -0.57812,0 -0.89062,0.28125 -0.3125,0.26562 -0.3125,0.8125 v 1.76562 h 4.20312 v 1.53125 h -4.20312 v 7.70313 z m 14.08435,0 q -0.90625,0 -1.57812,-0.34375 -0.67188,-0.35938 -1.04688,-1.01563 -0.35937,-0.65625 -0.35937,-1.53125 v -9.20312 h -3.45313 v -1.53125 h 5.125 v 10.73437 q 0,0.64063 0.35938,1 0.35937,0.35938 0.95312,0.35938 h 3.26563 v 1.53125 z m 9.77191,0.1875 q -1.76562,0 -2.84375,-1.04688 -1.0625,-1.0625 -1.0625,-2.875 v -6.53125 h 1.6875 v 6.53125 q 0,1.15625 0.59375,1.8125 0.59375,0.64063 1.625,0.64063 1.04688,0 1.64063,-0.64063 0.60937,-0.65625 0.60937,-1.8125 v -6.53125 h 1.6875 v 6.53125 q 0,1.8125 -1.09375,2.875 -1.07812,1.04688 -2.84375,1.04688 z m 6.5531,-0.1875 3.64063,-5.28125 -3.42188,-4.98438 h 1.98438 l 2.03125,3.17188 q 0.125,0.20312 0.25,0.45312 0.125,0.23438 0.1875,0.39063 0.0625,-0.15625 0.17187,-0.39063 0.125,-0.25 0.26563,-0.45312 l 2.04687,-3.17188 h 1.96875 l -3.42187,5 3.625,5.26563 h -1.98438 l -2.20312,-3.35938 q -0.125,-0.20312 -0.25,-0.46875 -0.125,-0.28125 -0.21875,-0.4375 -0.0625,0.15625 -0.20313,0.4375 -0.14062,0.26563 -0.29687,0.46875 l -2.21875,3.35938 z m 11.38129,1.85937 v -1.39062 h 8.95313 v 1.39062 z m 11.3031,-1.85937 v -10.26563 h 1.46875 v 1.23438 h 0.34375 l -0.26562,0.45312 q 0,-0.85937 0.45312,-1.35937 0.45313,-0.51563 1.25,-0.51563 0.84375,0 1.3125,0.64063 0.46875,0.64062 0.46875,1.79687 l -0.5,-1.01562 h 0.78125 l -0.35937,0.45312 q 0,-0.85937 0.46875,-1.35937 0.48437,-0.51563 1.26562,-0.51563 0.98438,0 1.51563,0.73438 0.53125,0.71875 0.53125,1.92187 v 7.79688 h -1.5625 v -7.8125 q 0,-0.64063 -0.26563,-0.98438 -0.26562,-0.35937 -0.79687,-0.35937 -0.5,0 -0.79688,0.34375 -0.28125,0.34375 -0.28125,0.98437 v 7.82813 h -1.34375 v -7.8125 q 0,-0.65625 -0.29687,-1 -0.28125,-0.34375 -0.79688,-0.34375 -0.53125,0 -0.79687,0.34375 -0.25,0.34375 -0.25,0.98437 v 7.82813 z m 11.53754,0 v -1.53125 h 3.64062 v -7.20313 h -3.17187 v -1.53125 h 4.85937 v 8.73438 h 3.45313 v 1.53125 z m 4.29687,-12.10938 q -0.60937,0 -0.96875,-0.3125 -0.35937,-0.32812 -0.35937,-0.85937 0,-0.5625 0.35937,-0.89063 0.35938,-0.32812 0.96875,-0.32812 0.625,0 0.96875,0.32812 0.35938,0.32813 0.35938,0.89063 0,0.53125 -0.35938,0.85937 -0.34375,0.3125 -0.96875,0.3125 z m 10.31873,12.29688 q -1.53125,0 -2.48438,-1.01563 -0.9375,-1.03125 -0.9375,-2.79687 v -3 q 0,-1.76563 0.9375,-2.79688 0.9375,-1.03125 2.48438,-1.03125 1.26562,0 2.03125,0.70313 0.76562,0.6875 0.76562,1.84375 l -0.32812,-0.39063 h 0.35937 l -0.0312,-2.34375 v -2.98437 h 1.6875 v 13.625 h -1.6875 v -1.95313 h -0.32812 l 0.32812,-0.39062 q 0,1.17187 -0.76562,1.85937 -0.76563,0.67188 -2.03125,0.67188 z m 0.5625,-1.45313 q 1.04687,0 1.64062,-0.65625 0.59375,-0.65625 0.59375,-1.8125 v -2.79687 q 0,-1.15625 -0.59375,-1.8125 -0.59375,-0.65625 -1.64062,-0.65625 -1.0625,0 -1.6875,0.64062 -0.60938,0.64063 -0.60938,1.82813 v 2.79687 q 0,1.20313 0.60938,1.84375 0.625,0.625 1.6875,0.625 z m 10.63129,1.45313 q -1.53125,0 -2.48438,-1.01563 -0.9375,-1.03125 -0.9375,-2.79687 v -3 q 0,-1.76563 0.9375,-2.79688 0.9375,-1.03125 2.48438,-1.03125 1.26562,0 2.03125,0.70313 0.76562,0.6875 0.76562,1.84375 l -0.32812,-0.39063 h 0.35937 l -0.0312,-2.34375 v -2.98437 h 1.6875 v 13.625 h -1.6875 v -1.95313 h -0.32812 l 0.32812,-0.39062 q 0,1.17187 -0.76562,1.85937 -0.76563,0.67188 -2.03125,0.67188 z m 0.5625,-1.45313 q 1.04687,0 1.64062,-0.65625 0.59375,-0.65625 0.59375,-1.8125 v -2.79687 q 0,-1.15625 -0.59375,-1.8125 -0.59375,-0.65625 -1.64062,-0.65625 -1.0625,0 -1.6875,0.64062 -0.60938,0.64063 -0.60938,1.82813 v 2.79687 q 0,1.20313 0.60938,1.84375 0.625,0.625 1.6875,0.625 z m 12.63122,1.26563 q -0.90625,0 -1.57812,-0.34375 -0.67188,-0.35938 -1.04688,-1.01563 -0.35937,-0.65625 -0.35937,-1.53125 v -9.20312 h -3.45313 v -1.53125 h 5.125 v 10.73437 q 0,0.64063 0.35938,1 0.35937,0.35938 0.95312,0.35938 h 3.26563 v 1.53125 z m 9.78754,0.1875 q -1.20313,0 -2.10938,-0.48438 -0.90625,-0.48437 -1.40625,-1.375 -0.5,-0.89062 -0.5,-2.0625 v -2.79687 q 0,-1.1875 0.5,-2.0625 0.5,-0.89063 1.40625,-1.375 0.90625,-0.48438 2.10938,-0.48438 1.21875,0 2.125,0.48438 0.90625,0.48437 1.39062,1.375 0.5,0.875 0.5,2.0625 v 1.8125 h -6.375 v 0.98437 q 0,1.21875 0.60938,1.85938 0.60937,0.64062 1.75,0.64062 0.96875,0 1.5625,-0.34375 0.60937,-0.34375 0.73437,-1.03125 h 1.6875 q -0.17187,1.28125 -1.26562,2.04688 -1.09375,0.75 -2.71875,0.75 z m 2.375,-6.03125 v -0.6875 q 0,-1.21875 -0.60938,-1.85938 -0.60937,-0.65625 -1.76562,-0.65625 -1.14063,0 -1.75,0.65625 -0.60938,0.64063 -0.60938,1.85938 v 0.54687 h 4.85938 z m 10.30939,-1.8125 q -0.6875,0 -1.10938,-0.375 -0.4375,-0.375 -0.4375,-1.01563 0,-0.64062 0.4375,-1.01562 0.42188,-0.39063 1.10938,-0.39063 0.71875,0 1.14062,0.39063 0.40625,0.375 0.40625,1.01562 0,0.64063 -0.40625,1.01563 -0.42187,0.375 -1.14062,0.375 z m 0,7.84375 q -0.6875,0 -1.10938,-0.375 -0.4375,-0.39063 -0.4375,-1.03125 0,-0.625 0.4375,-1 0.42188,-0.39063 1.10938,-0.39063 0.71875,0 1.14062,0.39063 0.40625,0.375 0.40625,1 0,0.64062 -0.40625,1.03125 -0.42187,0.375 -1.14062,0.375 z m 8.20312,-7.84375 q -0.6875,0 -1.125,-0.375 -0.42187,-0.375 -0.42187,-1.01563 0,-0.64062 0.42187,-1.01562 0.4375,-0.39063 1.125,-0.39063 0.71875,0 1.125,0.39063 0.42188,0.375 0.42188,1.01562 0,0.64063 -0.42188,1.01563 -0.40625,0.375 -1.125,0.375 z m 0,7.84375 q -0.6875,0 -1.125,-0.375 -0.42187,-0.39063 -0.42187,-1.03125 0,-0.625 0.42187,-1 0.4375,-0.39063 1.125,-0.39063 0.71875,0 1.125,0.39063 0.42188,0.375 0.42188,1 0,0.64062 -0.42188,1.03125 -0.40625,0.375 -1.125,0.375 z m 9.1781,-0.1875 v -10.26563 h 1.64063 v 1.96875 h 0.39062 l -0.54687,1.20313 q 0,-1.65625 0.71875,-2.5 0.71875,-0.85938 2.14062,-0.85938 1.625,0 2.57813,1.03125 0.96875,1.01563 0.96875,2.75 v 0.60938 h -1.6875 v -0.46875 q 0,-1.21875 -0.59375,-1.85938 -0.57813,-0.64062 -1.65625,-0.64062 -1.0625,0 -1.67188,0.65625 -0.60937,0.65625 -0.60937,1.84375 v 6.53125 z m 14.69379,0.1875 q -1.76563,0 -2.84375,-1.04688 -1.0625,-1.0625 -1.0625,-2.875 v -6.53125 h 1.6875 v 6.53125 q 0,1.15625 0.59375,1.8125 0.59375,0.64063 1.625,0.64063 1.04687,0 1.64062,-0.64063 0.60938,-0.65625 0.60938,-1.8125 v -6.53125 h 1.6875 v 6.53125 q 0,1.8125 -1.09375,2.875 -1.07813,1.04688 -2.84375,1.04688 z m 10.89685,-0.0312 q -1.04687,0 -1.82812,-0.32813 -0.76563,-0.32812 -1.23438,-0.92187 -0.45312,-0.60938 -0.54687,-1.42188 h 1.6875 q 0.10937,0.53125 0.59375,0.85938 0.5,0.3125 1.32812,0.3125 h 0.78125 q 0.98438,0 1.46875,-0.39063 0.48438,-0.40625 0.48438,-1.07812 0,-0.65625 -0.4375,-1.03125 -0.4375,-0.39063 -1.29688,-0.51563 l -1.375,-0.23437 q -1.51562,-0.25 -2.25,-0.9375 -0.73437,-0.6875 -0.73437,-1.98438 0,-1.39062 0.875,-2.14062 0.875,-0.75 2.625,-0.75 h 0.71875 q 1.46875,0 2.35937,0.6875 0.90625,0.6875 1.09375,1.85937 h -1.6875 q -0.10937,-0.48437 -0.5625,-0.76562 -0.4375,-0.29688 -1.20312,-0.29688 h -0.71875 q -0.9375,0 -1.39063,0.35938 -0.4375,0.35937 -0.4375,1.0625 0,0.64062 0.375,0.9375 0.375,0.29687 1.1875,0.42187 l 1.375,0.23438 q 1.65625,0.25 2.40625,0.96875 0.76563,0.70312 0.76563,2.04687 0,1.42188 -0.90625,2.23438 -0.90625,0.8125 -2.73438,0.8125 z m 12.63129,-0.15625 q -1.32813,0 -2.0625,-0.70313 -0.73438,-0.71875 -0.73438,-2 v -6.03125 h -2.89062 v -1.53125 h 2.89062 v -2.89062 h 1.67188 v 2.89062 h 4.10937 v 1.53125 h -4.10937 v 6.03125 q 0,1.17188 1.125,1.17188 h 2.79687 v 1.53125 z m 10.14685,0.1875 q -1.23438,0 -2.15625,-0.46875 -0.92188,-0.46875 -1.4375,-1.34375 -0.5,-0.89063 -0.5,-2.10938 v -2.79687 q 0,-1.23438 0.5,-2.10938 0.51562,-0.875 1.4375,-1.34375 0.92187,-0.46875 2.15625,-0.46875 1.76562,0 2.84375,0.95313 1.09375,0.95312 1.14062,2.59375 h -1.67187 q -0.0625,-0.98438 -0.67188,-1.51563 -0.59375,-0.53125 -1.64062,-0.53125 -1.09375,0 -1.75,0.625 -0.65625,0.625 -0.65625,1.78125 v 2.8125 q 0,1.15625 0.65625,1.79688 0.65625,0.625 1.75,0.625 1.04687,0 1.64062,-0.53125 0.60938,-0.54688 0.67188,-1.51563 h 1.67187 q -0.0469,1.64063 -1.14062,2.59375 -1.07813,0.95313 -2.84375,0.95313 z m 12.60626,-7.84375 q -0.6875,0 -1.10937,-0.375 -0.4375,-0.375 -0.4375,-1.01563 0,-0.64062 0.4375,-1.01562 0.42187,-0.39063 1.10937,-0.39063 0.71875,0 1.14063,0.39063 0.40625,0.375 0.40625,1.01562 0,0.64063 -0.40625,1.01563 -0.42188,0.375 -1.14063,0.375 z m 0,7.84375 q -0.6875,0 -1.10937,-0.375 -0.4375,-0.39063 -0.4375,-1.03125 0,-0.625 0.4375,-1 0.42187,-0.39063 1.10937,-0.39063 0.71875,0 1.14063,0.39063 0.40625,0.375 0.40625,1 0,0.64062 -0.40625,1.03125 -0.42188,0.375 -1.14063,0.375 z m 8.20313,-7.84375 q -0.6875,0 -1.125,-0.375 -0.42188,-0.375 -0.42188,-1.01563 0,-0.64062 0.42188,-1.01562 0.4375,-0.39063 1.125,-0.39063 0.71875,0 1.125,0.39063 0.42187,0.375 0.42187,1.01562 0,0.64063 -0.42187,1.01563 -0.40625,0.375 -1.125,0.375 z m 0,7.84375 q -0.6875,0 -1.125,-0.375 -0.42188,-0.39063 -0.42188,-1.03125 0,-0.625 0.42188,-1 0.4375,-0.39063 1.125,-0.39063 0.71875,0 1.125,0.39063 0.42187,0.375 0.42187,1 0,0.64062 -0.42187,1.03125 -0.40625,0.375 -1.125,0.375 z m 13.81878,-0.1875 q -1.32812,0 -2.0625,-0.70313 -0.73437,-0.71875 -0.73437,-2 v -6.03125 h -2.89063 v -1.53125 h 2.89063 v -2.89062 h 1.67187 v 2.89062 h 4.10938 v 1.53125 h -4.10938 v 6.03125 q 0,1.17188 1.125,1.17188 h 2.79688 v 1.53125 z m 7.8031,3.35937 1.5,-4 -3.79687,-9.625 h 1.85937 l 2.39063,6.34375 q 0.125,0.32813 0.23437,0.76563 0.125,0.4375 0.1875,0.73437 0.0781,-0.29687 0.1875,-0.73437 0.10938,-0.4375 0.23438,-0.76563 l 2.23437,-6.34375 h 1.8125 l -5.0625,13.625 z"
       fill-rule="nonzero"
       id="path45" />
    <path
       fill="#000000"
       fill-opacity="0"
       d="M 778.88199,293.28253 V 228.18017"
       fill-rule="evenodd"
       id="path47" />
    <path
       stroke="#000000"
       stroke-width="1"
       stroke-linejoin="round"
       stroke-linecap="butt"
       d="M 778.88199,293.28253 V 234.18017"
       fill-rule="evenodd"
       id="path49" />
    <path
       fill="#000000"
       stroke="#000000"
       stroke-width="1"
       stroke-linecap="butt"
       d="m 780.53372,234.18017 -1.65173,-4.53812 -1.65174,4.53812 z"
       fill-rule="evenodd"
       id="path51" />
    <path
       fill="#000000"
       fill-opacity="0"
       d="m 752.14182,242.7261 h 133.92126 v 42.01575 H 752.14182 Z"
       fill-rule="evenodd"
       id="path53" />
    <path
       fill="#000000"
       d="m 785.55092,269.64608 v -13.35937 h 1.64062 v 13.35937 z m 3.58228,-4.84375 q 0,-2.6875 1.48437,-3.96875 1.25,-1.07812 3.04688,-1.07812 2,0 3.26562,1.3125 1.26563,1.29687 1.26563,3.60937 0,1.85938 -0.5625,2.9375 -0.5625,1.0625 -1.64063,1.65625 -1.0625,0.59375 -2.32812,0.59375 -2.03125,0 -3.28125,-1.29687 -1.25,-1.3125 -1.25,-3.76563 z m 1.6875,0 q 0,1.85938 0.79687,2.79688 0.8125,0.92187 2.04688,0.92187 1.21875,0 2.03125,-0.92187 0.8125,-0.9375 0.8125,-2.84375 0,-1.79688 -0.8125,-2.71875 -0.8125,-0.92188 -2.03125,-0.92188 -1.23438,0 -2.04688,0.92188 -0.79687,0.90625 -0.79687,2.76562 z m 11.07885,4.84375 -2.96875,-9.67187 h 1.70313 l 1.53125,5.57812 0.57812,2.07813 q 0.0469,-0.15625 0.5,-2 l 1.54688,-5.65625 h 1.6875 l 1.4375,5.60937 0.48437,1.84375 0.5625,-1.85937 1.65625,-5.59375 h 1.59375 l -3.03125,9.67187 h -1.70312 l -1.53125,-5.79687 -0.375,-1.64063 -1.95313,7.4375 z m 18.31671,-3.10937 1.6875,0.20312 q -0.40625,1.48438 -1.48437,2.3125 -1.07813,0.8125 -2.76563,0.8125 -2.125,0 -3.375,-1.29687 -1.23437,-1.3125 -1.23437,-3.67188 0,-2.45312 1.25,-3.79687 1.26562,-1.34375 3.26562,-1.34375 1.9375,0 3.15625,1.32812 1.23438,1.3125 1.23438,3.70313 0,0.15625 0,0.4375 h -7.21875 q 0.0937,1.59375 0.90625,2.45312 0.8125,0.84375 2.01562,0.84375 0.90625,0 1.54688,-0.46875 0.64062,-0.48437 1.01562,-1.51562 z m -5.39062,-2.65625 h 5.40625 q -0.10938,-1.21875 -0.625,-1.82813 -0.78125,-0.95312 -2.03125,-0.95312 -1.125,0 -1.90625,0.76562 -0.76563,0.75 -0.84375,2.01563 z m 9.12567,5.76562 v -9.67187 h 1.46875 v 1.46875 q 0.5625,-1.03125 1.03125,-1.35938 0.48437,-0.32812 1.0625,-0.32812 0.82812,0 1.6875,0.53125 l -0.5625,1.51562 q -0.60938,-0.35937 -1.20313,-0.35937 -0.54687,0 -0.96875,0.32812 -0.42187,0.32813 -0.60937,0.89063 -0.28125,0.875 -0.28125,1.92187 v 5.0625 z m 6.22833,-11.46875 v -1.89062 h 1.64063 v 1.89062 z m 0,11.46875 v -9.67187 h 1.64063 v 9.67187 z m 4.14484,0 v -9.67187 h 1.46875 v 1.375 q 1.0625,-1.59375 3.07812,-1.59375 0.875,0 1.60938,0.3125 0.73437,0.3125 1.09375,0.82812 0.375,0.5 0.51562,1.20313 0.0937,0.45312 0.0937,1.59375 v 5.95312 h -1.64062 v -5.89062 q 0,-1 -0.20313,-1.48438 -0.1875,-0.5 -0.67187,-0.79687 -0.48438,-0.29688 -1.14063,-0.29688 -1.04687,0 -1.8125,0.67188 -0.75,0.65625 -0.75,2.51562 v 5.28125 z m 10.06317,0.79688 1.59375,0.23437 q 0.10937,0.75 0.5625,1.07813 0.60937,0.45312 1.67187,0.45312 1.14063,0 1.75,-0.45312 0.625,-0.45313 0.84375,-1.26563 0.125,-0.5 0.10938,-2.10937 -1.0625,1.26562 -2.67188,1.26562 -2,0 -3.09375,-1.4375 -1.09375,-1.4375 -1.09375,-3.45312 0,-1.39063 0.5,-2.5625 0.51563,-1.17188 1.45313,-1.79688 0.95312,-0.64062 2.25,-0.64062 1.70312,0 2.8125,1.375 v -1.15625 h 1.51562 v 8.35937 q 0,2.26563 -0.46875,3.20313 -0.45312,0.9375 -1.45312,1.48437 -0.98438,0.54688 -2.45313,0.54688 -1.71875,0 -2.79687,-0.78125 -1.0625,-0.76563 -1.03125,-2.34375 z m 1.35937,-5.8125 q 0,1.90625 0.75,2.78125 0.76563,0.875 1.90625,0.875 1.125,0 1.89063,-0.85938 0.76562,-0.875 0.76562,-2.73437 0,-1.78125 -0.79687,-2.67188 -0.78125,-0.90625 -1.89063,-0.90625 -1.09375,0 -1.85937,0.89063 -0.76563,0.875 -0.76563,2.625 z"
       fill-rule="nonzero"
       id="path55" />
    <path
       fill="#000000"
       fill-opacity="0"
       d="m 778.88199,186.17361 66.96063,-75.68504"
       fill-rule="evenodd"
       id="path57" />
    <path
       stroke="#000000"
       stroke-width="1"
       stroke-linejoin="round"
       stroke-linecap="butt"
       d="m 778.88199,186.17361 62.98492,-71.19133"
       fill-rule="evenodd"
       id="path59" />
    <path
       fill="#000000"
       stroke="#000000"
       stroke-width="1"
       stroke-linecap="butt"
       d="m 843.10397,116.07676 1.76996,-4.4933 -4.24408,2.30435 z"
       fill-rule="evenodd"
       id="path61" />
    <path
       fill="#000000"
       fill-opacity="0"
       d="m 778.87149,132.28778 h 133.92126 v 42.01575 H 778.87149 Z"
       fill-rule="evenodd"
       id="path63" />
    <path
       fill="#000000"
       d="m 816.45662,159.20775 v -9.67188 h 1.46875 v 1.46875 q 0.5625,-1.03125 1.03125,-1.35937 0.48438,-0.32813 1.0625,-0.32813 0.82813,0 1.6875,0.53125 l -0.5625,1.51563 q -0.60937,-0.35938 -1.20312,-0.35938 -0.54688,0 -0.96875,0.32813 -0.42188,0.32812 -0.60938,0.89062 -0.28125,0.875 -0.28125,1.92188 v 5.0625 z m 12.85327,-3.10938 1.6875,0.20313 q -0.40625,1.48437 -1.48437,2.3125 -1.07813,0.8125 -2.76563,0.8125 -2.125,0 -3.375,-1.29688 -1.23437,-1.3125 -1.23437,-3.67187 0,-2.45313 1.25,-3.79688 1.26562,-1.34375 3.26562,-1.34375 1.9375,0 3.15625,1.32813 1.23438,1.3125 1.23438,3.70312 0,0.15625 0,0.4375 h -7.21875 q 0.0937,1.59375 0.90625,2.45313 0.8125,0.84375 2.01562,0.84375 0.90625,0 1.54688,-0.46875 0.64062,-0.48438 1.01562,-1.51563 z m -5.39062,-2.65625 h 5.40625 q -0.10938,-1.21875 -0.625,-1.82812 -0.78125,-0.95313 -2.03125,-0.95313 -1.125,0 -1.90625,0.76563 -0.76563,0.75 -0.84375,2.01562 z m 9.53198,5.76563 v -8.40625 h -1.45313 v -1.26563 h 1.45313 v -1.03125 q 0,-0.96875 0.17187,-1.45312 0.23438,-0.64063 0.82813,-1.03125 0.59375,-0.39063 1.67187,-0.39063 0.6875,0 1.53125,0.15625 l -0.25,1.4375 q -0.5,-0.0937 -0.95312,-0.0937 -0.75,0 -1.0625,0.32813 -0.3125,0.3125 -0.3125,1.1875 v 0.89062 h 1.89062 v 1.26563 h -1.89062 v 8.40625 z m 4.79266,-11.46875 v -1.89063 h 1.64063 v 1.89063 z m 0,11.46875 v -9.67188 h 1.64063 v 9.67188 z m 4.14484,0 v -9.67188 h 1.46875 v 1.375 q 1.0625,-1.59375 3.07812,-1.59375 0.875,0 1.60938,0.3125 0.73437,0.3125 1.09375,0.82813 0.375,0.5 0.51562,1.20312 0.0937,0.45313 0.0937,1.59375 v 5.95313 h -1.64062 v -5.89063 q 0,-1 -0.20313,-1.48437 -0.1875,-0.5 -0.67187,-0.79688 -0.48438,-0.29687 -1.14063,-0.29687 -1.04687,0 -1.8125,0.67187 -0.75,0.65625 -0.75,2.51563 v 5.28125 z M 852.76448,147.739 v -1.89063 h 1.64063 v 1.89063 z m 0,11.46875 v -9.67188 h 1.64063 v 9.67188 z m 4.14484,0 v -9.67188 h 1.46875 v 1.375 q 1.0625,-1.59375 3.07812,-1.59375 0.875,0 1.60938,0.3125 0.73437,0.3125 1.09375,0.82813 0.375,0.5 0.51562,1.20312 0.0937,0.45313 0.0937,1.59375 v 5.95313 h -1.64062 v -5.89063 q 0,-1 -0.20313,-1.48437 -0.1875,-0.5 -0.67187,-0.79688 -0.48438,-0.29687 -1.14063,-0.29687 -1.04687,0 -1.8125,0.67187 -0.75,0.65625 -0.75,2.51563 v 5.28125 z m 10.06317,0.79687 1.59375,0.23438 q 0.10937,0.75 0.5625,1.07812 0.60937,0.45313 1.67187,0.45313 1.14063,0 1.75,-0.45313 0.625,-0.45312 0.84375,-1.26562 0.125,-0.5 0.10938,-2.10938 -1.0625,1.26563 -2.67188,1.26563 -2,0 -3.09375,-1.4375 -1.09375,-1.4375 -1.09375,-3.45313 0,-1.39062 0.5,-2.5625 0.51563,-1.17187 1.45313,-1.79687 0.95312,-0.64063 2.25,-0.64063 1.70312,0 2.8125,1.375 v -1.15625 h 1.51562 v 8.35938 q 0,2.26562 -0.46875,3.20312 -0.45312,0.9375 -1.45312,1.48438 -0.98438,0.54687 -2.45313,0.54687 -1.71875,0 -2.79687,-0.78125 -1.0625,-0.76562 -1.03125,-2.34375 z m 1.35937,-5.8125 q 0,1.90625 0.75,2.78125 0.76563,0.875 1.90625,0.875 1.125,0 1.89063,-0.85937 0.76562,-0.875 0.76562,-2.73438 0,-1.78125 -0.79687,-2.67187 -0.78125,-0.90625 -1.89063,-0.90625 -1.09375,0 -1.85937,0.89062 -0.76563,0.875 -0.76563,2.625 z"
       fill-rule="nonzero"
       id="path65" />
    <path
       fill="#d9d9d9"
       d="M 402.87674,220.81795 H 533.33347 V 262.8337 H 402.87674 Z"
       fill-rule="evenodd"
       id="path67" />
    <path
       fill="#000000"
       d="m 419.81132,247.73795 v -10.26563 h 1.64062 v 1.96875 h 0.39063 l -0.54688,1.20313 q 0,-1.65625 0.71875,-2.5 0.71875,-0.85938 2.14063,-0.85938 1.625,0 2.57812,1.03125 0.96875,1.01563 0.96875,2.75 v 0.60938 h -1.6875 v -0.46875 q 0,-1.21875 -0.59375,-1.85938 -0.57812,-0.64062 -1.65625,-0.64062 -1.0625,0 -1.67187,0.65625 -0.60938,0.65625 -0.60938,1.84375 v 6.53125 z m 14.69376,0.1875 q -1.76563,0 -2.84375,-1.04688 -1.0625,-1.0625 -1.0625,-2.875 v -6.53125 h 1.6875 v 6.53125 q 0,1.15625 0.59375,1.8125 0.59375,0.64063 1.625,0.64063 1.04687,0 1.64062,-0.64063 0.60938,-0.65625 0.60938,-1.8125 v -6.53125 h 1.6875 v 6.53125 q 0,1.8125 -1.09375,2.875 -1.07813,1.04688 -2.84375,1.04688 z m 10.89688,-0.0312 q -1.04688,0 -1.82813,-0.32813 -0.76562,-0.32812 -1.23437,-0.92187 -0.45313,-0.60938 -0.54688,-1.42188 h 1.6875 q 0.10938,0.53125 0.59375,0.85938 0.5,0.3125 1.32813,0.3125 h 0.78125 q 0.98437,0 1.46875,-0.39063 0.48437,-0.40625 0.48437,-1.07812 0,-0.65625 -0.4375,-1.03125 -0.4375,-0.39063 -1.29687,-0.51563 l -1.375,-0.23437 q -1.51563,-0.25 -2.25,-0.9375 -0.73438,-0.6875 -0.73438,-1.98438 0,-1.39062 0.875,-2.14062 0.875,-0.75 2.625,-0.75 h 0.71875 q 1.46875,0 2.35938,0.6875 0.90625,0.6875 1.09375,1.85937 h -1.6875 q -0.10938,-0.48437 -0.5625,-0.76562 -0.4375,-0.29688 -1.20313,-0.29688 h -0.71875 q -0.9375,0 -1.39062,0.35938 -0.4375,0.35937 -0.4375,1.0625 0,0.64062 0.375,0.9375 0.375,0.29687 1.1875,0.42187 l 1.375,0.23438 q 1.65625,0.25 2.40625,0.96875 0.76562,0.70312 0.76562,2.04687 0,1.42188 -0.90625,2.23438 -0.90625,0.8125 -2.73437,0.8125 z m 12.63125,-0.15625 q -1.32812,0 -2.0625,-0.70313 -0.73437,-0.71875 -0.73437,-2 v -6.03125 h -2.89063 v -1.53125 h 2.89063 v -2.89062 h 1.67187 v 2.89062 h 4.10938 v 1.53125 h -4.10938 v 6.03125 q 0,1.17188 1.125,1.17188 h 2.79688 v 1.53125 z m 10.14688,0.1875 q -1.23437,0 -2.15625,-0.46875 -0.92187,-0.46875 -1.4375,-1.34375 -0.5,-0.89063 -0.5,-2.10938 v -2.79687 q 0,-1.23438 0.5,-2.10938 0.51563,-0.875 1.4375,-1.34375 0.92188,-0.46875 2.15625,-0.46875 1.76563,0 2.84375,0.95313 1.09375,0.95312 1.14063,2.59375 h -1.67188 q -0.0625,-0.98438 -0.67187,-1.51563 -0.59375,-0.53125 -1.64063,-0.53125 -1.09375,0 -1.75,0.625 -0.65625,0.625 -0.65625,1.78125 v 2.8125 q 0,1.15625 0.65625,1.79688 0.65625,0.625 1.75,0.625 1.04688,0 1.64063,-0.53125 0.60937,-0.54688 0.67187,-1.51563 h 1.67188 q -0.0469,1.64063 -1.14063,2.59375 -1.07812,0.95313 -2.84375,0.95313 z m 6.64689,1.67187 v -1.39062 h 8.95312 v 1.39062 z m 11.7875,-1.85937 v -13.625 h 1.67188 v 3.35937 1.96875 h 0.35937 l -0.35937,0.39063 q 0,-1.21875 0.71875,-1.875 0.73437,-0.67188 2.03125,-0.67188 1.54687,0 2.45312,0.95313 0.92188,0.95312 0.92188,2.59375 v 6.90625 h -1.6875 v -6.71875 q 0,-1.09375 -0.59375,-1.70313 -0.57813,-0.60937 -1.57813,-0.60937 -1.04687,0 -1.65625,0.65625 -0.60937,0.65625 -0.60937,1.84375 v 6.53125 z m 11.05313,0 v -1.53125 h 3.64063 v -7.20313 h -3.17188 v -1.53125 h 4.85938 v 8.73438 h 3.45312 v 1.53125 z m 4.29688,-12.10938 q -0.60938,0 -0.96875,-0.3125 -0.35938,-0.32812 -0.35938,-0.85937 0,-0.5625 0.35938,-0.89063 0.35937,-0.32812 0.96875,-0.32812 0.625,0 0.96875,0.32812 0.35937,0.32813 0.35937,0.89063 0,0.53125 -0.35937,0.85937 -0.34375,0.3125 -0.96875,0.3125 z m 7.39688,12.10938 v -10.26563 h 1.64062 v 1.96875 h 0.39063 l -0.54688,1.20313 q 0,-1.65625 0.71875,-2.5 0.71875,-0.85938 2.14063,-0.85938 1.625,0 2.57812,1.03125 0.96875,1.01563 0.96875,2.75 v 0.60938 h -1.6875 v -0.46875 q 0,-1.21875 -0.59375,-1.85938 -0.57812,-0.64062 -1.65625,-0.64062 -1.0625,0 -1.67187,0.65625 -0.60938,0.65625 -0.60938,1.84375 v 6.53125 z"
       fill-rule="nonzero"
       id="path69" />
    <path
       fill="#000000"
       fill-opacity="0"
       d="m 468.1051,220.81795 29.73227,-110.3307"
       fill-rule="evenodd"
       id="path71" />
    <path
       stroke="#000000"
       stroke-width="1"
       stroke-linejoin="round"
       stroke-linecap="butt"
       d="M 468.1051,220.81795 496.27618,116.28057"
       fill-rule="evenodd"
       id="path73" />
    <path
       fill="#000000"
       stroke="#000000"
       stroke-width="1"
       stroke-linecap="butt"
       d="m 497.871,116.71035 -0.414,-4.81155 -2.77567,3.95199 z"
       fill-rule="evenodd"
       id="path75" />
    <path
       fill="#000000"
       fill-opacity="0"
       d="m 446.37542,150.16835 h 133.9213 v 42.01575 h -133.9213 z"
       fill-rule="evenodd"
       id="path77" />
    <path
       fill="#000000"
       d="m 492.74732,177.08835 v -13.35937 h 1.64062 v 13.35937 z M 496.939,165.6196 v -1.89062 h 1.64063 v 1.89062 z m 0,11.46875 v -9.67187 h 1.64063 v 9.67187 z m 4.53546,0 v -8.40625 h -1.45312 v -1.26562 h 1.45312 v -1.03125 q 0,-0.96875 0.17188,-1.45313 0.23437,-0.64062 0.82812,-1.03125 0.59375,-0.39062 1.67188,-0.39062 0.6875,0 1.53125,0.15625 l -0.25,1.4375 q -0.5,-0.0937 -0.95313,-0.0937 -0.75,0 -1.0625,0.32812 -0.3125,0.3125 -0.3125,1.1875 v 0.89063 h 1.89063 v 1.26562 h -1.89063 v 8.40625 z m 8.37079,-1.46875 0.23438,1.45313 q -0.6875,0.14062 -1.23438,0.14062 -0.89062,0 -1.39062,-0.28125 -0.48438,-0.28125 -0.6875,-0.73437 -0.20313,-0.46875 -0.20313,-1.9375 v -5.57813 h -1.20312 v -1.26562 h 1.20312 v -2.39063 l 1.625,-0.98437 v 3.375 h 1.65625 v 1.26562 H 508.189 v 5.67188 q 0,0.6875 0.0781,0.89062 0.0937,0.20313 0.28125,0.32813 0.20312,0.10937 0.57812,0.10937 0.26563,0 0.71875,-0.0625 z m 1.6052,-10 v -1.89062 h 1.64062 v 1.89062 z m 0,11.46875 v -9.67187 h 1.64062 v 9.67187 z m 4.1448,0 v -9.67187 h 1.46875 v 1.375 q 1.0625,-1.59375 3.07813,-1.59375 0.875,0 1.60937,0.3125 0.73438,0.3125 1.09375,0.82812 0.375,0.5 0.51563,1.20313 0.0937,0.45312 0.0937,1.59375 v 5.95312 h -1.64063 v -5.89062 q 0,-1 -0.20312,-1.48438 -0.1875,-0.5 -0.67188,-0.79687 -0.48437,-0.29688 -1.14062,-0.29688 -1.04688,0 -1.8125,0.67188 -0.75,0.65625 -0.75,2.51562 v 5.28125 z m 10.06323,0.79688 1.59375,0.23437 q 0.10938,0.75 0.5625,1.07813 0.60938,0.45312 1.67188,0.45312 1.14062,0 1.75,-0.45312 0.625,-0.45313 0.84375,-1.26563 0.125,-0.5 0.10937,-2.10937 -1.0625,1.26562 -2.67187,1.26562 -2,0 -3.09375,-1.4375 -1.09375,-1.4375 -1.09375,-3.45312 0,-1.39063 0.5,-2.5625 0.51562,-1.17188 1.45312,-1.79688 0.95313,-0.64062 2.25,-0.64062 1.70313,0 2.8125,1.375 v -1.15625 h 1.51563 v 8.35937 q 0,2.26563 -0.46875,3.20313 -0.45313,0.9375 -1.45313,1.48437 -0.98437,0.54688 -2.45312,0.54688 -1.71875,0 -2.79688,-0.78125 -1.0625,-0.76563 -1.03125,-2.34375 z m 1.35938,-5.8125 q 0,1.90625 0.75,2.78125 0.76562,0.875 1.90625,0.875 1.125,0 1.89062,-0.85938 0.76563,-0.875 0.76563,-2.73437 0,-1.78125 -0.79688,-2.67188 -0.78125,-0.90625 -1.89062,-0.90625 -1.09375,0 -1.85938,0.89063 -0.76562,0.875 -0.76562,2.625 z"
       fill-rule="nonzero"
       id="path79" />
  </g>
</svg>
