<?xml version="1.0" encoding="UTF-8" standalone="no"?>
<!-- Created with Inkscape (http://www.inkscape.org/) -->

<svg
   width="790.17816mm"
   height="350.04037mm"
   viewBox="0 0 790.17816 350.04037"
   version="1.1"
   id="svg5"
   xml:space="preserve"
   inkscape:version="1.2.2 (b0a8486541, 2022-12-01)"
   sodipodi:docname="logo.svg"
   xmlns:inkscape="http://www.inkscape.org/namespaces/inkscape"
   xmlns:sodipodi="http://sodipodi.sourceforge.net/DTD/sodipodi-0.dtd"
   xmlns="http://www.w3.org/2000/svg"
   xmlns:svg="http://www.w3.org/2000/svg">
   <style>
    #path125 {
      fill: #000000;
      stroke-width: 0.264583;
      paint-order: stroke;
    }
    @media (prefers-color-scheme: dark) {
      #path125 {
        fill: #ffffff;
      }
    }
   </style>
   <sodipodi:namedview
     id="namedview7"
     pagecolor="#ffffff"
     bordercolor="#000000"
     borderopacity="0.25"
     inkscape:showpageshadow="true"
     inkscape:pageopacity="0.0"
     inkscape:pagecheckerboard="0"
     inkscape:deskcolor="#d1d1d1"
     inkscape:document-units="mm"
     showgrid="false"
     inkscape:zoom="0.457453"
     inkscape:cx="971.68452"
     inkscape:cy="808.82626"
     inkscape:window-width="2560"
     inkscape:window-height="1403"
     inkscape:window-x="0"
     inkscape:window-y="0"
     inkscape:window-maximized="1"
     inkscape:current-layer="layer1"
     showborder="true"
     borderlayer="true"
     shape-rendering="auto" /><defs
     id="defs2" /><g
     inkscape:label="Layer 1"
     inkscape:groupmode="layer"
     id="layer1"
     transform="translate(286.9669,29.101338)"><path
       d="m -114.06155,320.66808 c -1.23773,-0.49353 -1.90045,-1.42068 -6.52285,-9.12556 l -4.62129,-7.703 -1.61056,-0.16835 c -3.38806,-0.35412 -2.64793,-0.86048 -9.04922,6.19112 -3.17513,3.49771 -6.17693,6.66758 -6.67066,7.04416 -1.75934,1.34191 -4.66512,1.0219 -6.30992,-0.69491 -0.55685,-0.58121 -1.51321,-2.91787 -3.81532,-9.32185 l -3.07219,-8.54622 -2.30886,-0.74232 -2.30886,-0.74234 -6.88698,5.10797 c -3.78783,2.80937 -7.27136,5.31629 -7.74118,5.57096 -1.02508,0.55565 -3.06558,0.60311 -4.24439,0.0987 -1.00248,-0.42894 -2.16905,-1.60954 -2.52688,-2.55725 -0.13967,-0.36989 -0.82328,-4.53708 -1.51915,-9.26042 -0.69586,-4.72331 -1.38598,-8.74673 -1.5336,-8.94088 -0.30037,-0.3951 -3.69322,-2.16051 -4.15219,-2.16051 -0.16206,0 -3.82621,1.67328 -8.14254,3.71843 -8.65075,4.09882 -9.50429,4.3584 -11.47095,3.48845 -1.69819,-0.75117 -2.65514,-2.10714 -2.81225,-3.98481 -0.12384,-1.48002 0.3934,-15.55607 0.62926,-17.12457 0.10999,-0.73147 -0.0536,-0.94938 -1.7761,-2.36646 l -1.89725,-1.5608 -8.75404,2.17487 c -4.81473,1.19621 -9.07372,2.17181 -9.46442,2.16802 -2.26581,-0.022 -4.69942,-2.44229 -4.72046,-4.69474 -0.004,-0.40484 0.97182,-4.67542 2.16801,-9.49012 l 2.17488,-8.75406 -1.5608,-1.89725 c -1.41708,-1.72252 -1.635,-1.88608 -2.36645,-1.77609 -1.5685,0.23585 -15.64454,0.75311 -17.12457,0.62925 -1.87768,-0.1571 -3.23363,-1.11405 -3.98482,-2.81225 -0.86995,-1.96665 -0.61037,-2.8202 3.48846,-11.47096 2.04513,-4.31632 3.71842,-7.98046 3.71842,-8.14253 0,-0.45685 -1.76414,-3.85039 -2.1605,-4.15599 -0.19417,-0.14971 -1.30554,-0.40765 -2.46971,-0.5732 -8.02,-1.14046 -14.93955,-2.22275 -15.62949,-2.44461 -0.97072,-0.31215 -2.35232,-1.68025 -2.74282,-2.71603 -0.42564,-1.12897 -0.33654,-3.12898 0.1822,-4.08967 0.25467,-0.47162 2.76251,-3.95092 5.573,-7.73178 l 5.10997,-6.87429 -0.74434,-2.31049 -0.74435,-2.3105 -3.70417,-1.34481 c -2.03729,-0.73965 -5.84274,-2.10837 -8.45655,-3.0416 -3.14035,-1.12123 -5.04167,-1.95079 -5.60522,-2.44559 -1.80034,-1.58072 -2.17125,-4.57928 -0.79037,-6.3897 0.38026,-0.49854 3.55012,-3.49418 7.04415,-6.65697 5.19461,-4.70216 6.35244,-5.87577 6.3509,-6.43745 -10e-4,-0.37779 -0.0771,-1.4837 -0.16913,-2.45756 l -0.16724,-1.77066 -7.76164,-4.65431 c -9.08753,-5.44939 -9.23032,-5.58046 -9.23032,-8.47312 0,-2.89266 0.14279,-3.02374 9.23032,-8.47312 l 7.76164,-4.65431 0.16724,-1.77066 c 0.092,-0.97386 0.1681,-2.07977 0.16913,-2.45757 0.002,-0.56167 -1.15629,-1.73528 -6.3509,-6.43744 -3.49403,-3.16279 -6.66389,-6.15843 -7.04415,-6.65697 -0.82094,-1.07631 -1.08502,-2.81945 -0.63412,-4.18569 0.34987,-1.06013 1.37381,-2.40086 2.15138,-2.81701 0.27427,-0.14678 4.16073,-1.57924 8.63657,-3.18323 4.47584,-1.604 8.22598,-3.00401 8.33364,-3.11114 0.10767,-0.10713 0.49261,-1.18657 0.85543,-2.398751 l 0.65968,-2.20398 -5.08876,-6.84574 c -2.79882,-3.76515 -5.29712,-7.2316 -5.55179,-7.70323 -0.51874,-0.96068 -0.60784,-2.9607 -0.1822,-4.08967 0.3905,-1.03577 1.7721,-2.40388 2.74282,-2.71603 0.7012,-0.22548 8.88321,-1.50138 15.62949,-2.43725 1.57706,-0.21877 2.24214,-0.43603 2.60886,-0.8522 0.56348,-0.63946 2.02135,-3.44032 2.02135,-3.88341 0,-0.16258 -1.67329,-3.827148 -3.71842,-8.143478 -4.09883,-8.65075 -4.35841,-9.5043 -3.48846,-11.47095 0.75119,-1.69819 2.10714,-2.65514 3.98482,-2.81226 1.48003,-0.12384 15.55607,0.39341 17.12457,0.62927 0.73145,0.10999 0.94937,-0.0536 2.36645,-1.7761 l 1.5608,-1.89725 -2.17488,-8.75404 c -1.19619,-4.81473 -2.17179,-9.08529 -2.16801,-9.49015 0.021,-2.25245 2.45465,-4.6728 4.72046,-4.69473 0.3907,-0.004 4.64969,0.97182 9.46442,2.16801 l 8.75404,2.17488 1.89725,-1.56081 c 1.72253,-1.41707 1.88609,-1.63499 1.7761,-2.36644 -0.23586,-1.5685 -0.7531,-15.6445399 -0.62926,-17.1245699 0.15711,-1.87768 1.11406,-3.23362996 2.81225,-3.98481996 1.96666,-0.86995 2.8202,-0.61037 11.47095,3.48845996 4.31633,2.04513 7.98048,3.71842 8.14254,3.71842 0.45897,0 3.85182,-1.7654 4.15219,-2.1605 0.14762,-0.19417 0.83774,-4.21757996 1.5336,-8.9409 0.69587,-4.72332 1.37948,-8.8905101 1.51915,-9.2604201 0.35783,-0.94771 1.5244,-2.1283 2.52688,-2.55723 1.17881,-0.50438 3.21931,-0.45691 4.24439,0.0987 0.46982,0.25467 3.95292,2.76129 7.74024,5.57028 l 6.88604,5.1072501 2.30584,-0.74163 2.30584,-0.74163 3.07615,-8.5462101 c 2.30314,-6.39861 3.2629,-8.74113 3.81928,-9.32187 1.57719,-1.646229 4.465,-2.027139 6.16909,-0.813709 0.441,0.31401 3.14909,3.157599 6.01799,6.319069 2.86889,3.16148 5.5413,6.08929 5.93868,6.50625 l 0.7225,0.75811 2.39026,-0.18918 2.39026,-0.18918 4.62708,-7.71268 c 2.5449,-4.24197 4.90608,-7.972639 5.24706,-8.290369 1.667,-1.55328 4.86464,-1.55328 6.53163,0 0.34099,0.31773 2.69935,4.043689 5.2408,8.279919 l 4.620822,7.70223 1.770657,0.16724 c 0.973863,0.092 2.07585,0.16809 2.448857,0.16913 0.550008,0.002 1.768718,-1.20036 6.447859,-6.35884 3.173317,-3.4984 6.172872,-6.668269 6.665682,-7.044149 1.80158,-1.37414 4.803143,-0.99681 6.382854,0.802369 0.541491,0.61673 1.595305,3.21062 3.759753,9.25437 1.654058,4.6186 3.104634,8.4575601 3.223501,8.5310201 0.118866,0.0735 1.185259,0.42365 2.369761,0.77819 l 2.153643,0.64461 6.849835,-5.0887801 c 3.76741,-2.79883 7.233833,-5.29714 7.703164,-5.55181 1.024101,-0.55568 3.064605,-0.60315 4.243522,-0.0987 0.999959,0.42786 2.16884,1.60894 2.524427,2.55078 0.138319,0.36636 0.808101,4.4740201 1.488408,9.1281301 0.680305,4.65411004 1.330079,8.63783 1.44394,8.85273 0.231434,0.43678 3.663043,2.37691 4.215498,2.3833 0.194816,0.002 3.885753,-1.66918 8.202073,-3.71431 8.650764,-4.09882996 9.50431,-4.35840996 11.470958,-3.48845996 1.698202,0.75119 2.655147,2.10713996 2.812257,3.98481996 0.123851,1.48003 -0.393409,15.5560699 -0.629259,17.1245699 -0.109987,0.73145 0.05358,0.94937 1.776095,2.36644 l 1.8972481,1.56081 8.83107728,-2.20139 c 6.60458202,-1.64637 9.09923302,-2.16541 9.89472902,-2.05871 2.0254906,0.27167 3.8586566,2.10485 4.1303306,4.13034 0.106707,0.79549 -0.412353,3.29014 -2.058723,9.89472 l -2.2013856,8.83107 1.5608036,1.89725 c 1.417082,1.72253 1.634992,1.88609 2.366459,1.7761 1.568503,-0.23586 15.644549,-0.75311 17.124575,-0.62927 1.877669,0.15712 3.233632,1.11407 3.98481,2.81226 0.86995,1.96665 0.610368,2.8202 -3.488452,11.47095 -2.045149,4.31633 -3.718427,7.980898 -3.718427,8.143478 0,0.44191 1.456796,3.24239 2.021337,3.88574 0.395049,0.4502 1.092729,0.64356 3.534913,0.97971 6.828552,0.93991 13.939494,2.05386 14.703452,2.30334 0.972608,0.31763 2.353257,1.68685 2.742829,2.7201 0.425636,1.12897 0.336524,3.12899 -0.182218,4.08967 -0.254662,0.47163 -2.762515,3.95093 -5.572998,7.73178 l -5.109978,6.87429 0.744352,2.3143 0.744353,2.314301 8.546227,3.07615 c 6.398604,2.30314 8.741119,3.2629 9.321853,3.81928 1.716802,1.6448 2.036816,4.55058 0.694902,6.30992 -0.376582,0.49373 -3.546449,3.49553 -7.044161,6.67066 -7.142666,6.48395 -6.587729,5.64208 -6.134841,9.30732 l 0.17227,1.39416 7.668631,4.58972 c 9.078066,5.43327 9.264703,5.60443 9.264703,8.49696 0,2.89253 -0.186637,3.06369 -9.264703,8.49696 l -7.668631,4.58971 -0.17227,1.39417 c -0.452888,3.66524 -1.007825,2.82337 6.134841,9.30732 3.497712,3.17513 6.667579,6.17692 7.044161,6.67065 1.341914,1.75935 1.0219,4.66513 -0.694902,6.30993 -0.580734,0.55638 -2.923249,1.51614 -9.321853,3.81927 l -8.546227,3.07616 -0.744353,2.3143 -0.744352,2.31429 5.109978,6.87429 c 2.810483,3.78086 5.318336,7.26016 5.572998,7.73178 0.518742,0.96069 0.607854,2.9607 0.182218,4.08967 -0.389572,1.03326 -1.770221,2.40247 -2.742829,2.7201 -0.747633,0.24416 -7.261649,1.26798 -14.703452,2.31098 -1.67349,0.23455 -3.201591,0.54986 -3.395742,0.7007 -0.39706,0.30844 -2.160508,3.70234 -2.160508,4.15805 0,0.16207 1.673278,3.82621 3.718427,8.14253 4.09882,8.65076 4.358402,9.50431 3.488452,11.47096 -0.751178,1.6982 -2.107141,2.65515 -3.98481,2.81225 -1.480026,0.12386 -15.556072,-0.3934 -17.124575,-0.62925 -0.731467,-0.10999 -0.949377,0.0536 -2.366459,1.77609 l -1.5608036,1.89725 2.2013856,8.83108 c 1.64637,6.60458 2.16543,9.09923 2.058723,9.89472 -0.271674,2.0255 -2.10484,3.85866 -4.1303306,4.13034 -0.795496,0.1067 -3.290147,-0.41236 -9.89472902,-2.05873 l -8.83107728,-2.20138 -1.8972481,1.5608 c -1.722517,1.41708 -1.886082,1.63499 -1.776095,2.36646 0.23585,1.5685 0.75311,15.64455 0.629259,17.12457 -0.15711,1.87767 -1.114055,3.23364 -2.812257,3.98481 -1.966648,0.86995 -2.820194,0.61037 -11.470958,-3.48845 -4.31632,-2.04515 -8.007257,-3.71657 -8.202073,-3.71432 -0.552455,0.006 -3.984064,1.94651 -4.215498,2.38331 -0.113861,0.21489 -0.763635,4.19862 -1.44394,8.85272 -0.680307,4.65413 -1.350089,8.76178 -1.488408,9.12812 -0.355587,0.94184 -1.524468,2.12294 -2.524427,2.5508 -1.178917,0.5044 -3.219421,0.45693 -4.243522,-0.0987 -0.469331,-0.25467 -3.948613,-2.76252 -7.731734,-5.573 l -6.878407,-5.11001 -2.314343,0.74438 -2.314342,0.74436 -3.076154,8.54622 c -2.30314,6.39861 -3.262898,8.74112 -3.819277,9.32185 -1.648756,1.72093 -4.55037,2.03698 -6.318673,0.68824 -0.498539,-0.38026 -3.494175,-3.55013 -6.65697,-7.04416 -4.702157,-5.19462 -5.875766,-6.35244 -6.437442,-6.3509 -0.377799,0 -1.483704,0.0772 -2.457567,0.16912 l -1.770657,0.16724 -4.620822,7.70224 c -2.54145,4.23621 -4.89981,7.96218 -5.2408,8.27992 -0.34099,0.31774 -0.95515,0.70469 -1.36481,0.8599 -0.91762,0.34766 -2.99579,0.33961 -3.88524,-0.0151 z m 15.213406,-46.92684 c 10.201188,-1.1185 19.292822,-3.13595 28.707264,-6.37016 4.316285,-1.48283 11.979354,-4.61037 12.784672,-5.21785 0.32521,-0.24532 0.873353,-3.15198 2.295565,-12.17277 1.094123,-6.9398 2.092211,-12.44885 2.408579,-13.29444 0.74853,-2.00062 2.758924,-4.13104 4.886859,-5.17863 2.803404,-1.3801 3.591314,-1.3426 17.179563,0.8178 l 11.906251,1.89299 1.02788,-1.14255 c 21.6486054,-24.06428 33.119934,-52.40071 33.93448,-83.82487 0.146526,-5.6533 -0.126894,-13.30279 -0.59817,-16.7349 l -0.172561,-1.25677 H -17.127848 -49.767934 V 111.81222 92.365339 l -27.31823,0.002 c -15.38305,0.001 -28.266046,0.11099 -29.487656,0.25147 -2.69158,0.3095 -4.56278,1.09308 -5.75093,2.40822 -1.7031,1.88501 -1.73694,2.22327 -1.73694,17.362261 v 13.57802 h 24.20938 24.209376 v 14.94896 14.94895 h -24.209376 -24.20938 l 0.005,16.20573 c 0.003,9.16359 0.11837,17.01055 0.26557,18.05781 0.47351,3.3688 1.9592,5.45208 4.46057,6.25474 0.65534,0.21029 5.31649,0.34386 14.781644,0.42358 l 13.82448,0.11643 v 19.42304 19.42294 h -45.508294 c -25.02959,0 -45.50834,0.0446 -45.50834,0.099 0,0.0545 0.17802,0.60357 0.3956,1.22026 0.21758,0.61669 1.2335,6.43596 2.25761,12.93172 1.41721,8.98914 1.96407,11.88744 2.28923,12.13271 0.80319,0.60587 8.4633,3.73327 12.75713,5.20837 11.13725,3.82609 22.84702,6.13926 34.82022,6.87848 3.47702,0.21469 16.85225,-0.11284 20.372924,-0.49884 z m -88.672516,-10.29838 c 3.00786,-0.90522 5.46286,-3.35328 6.52514,-6.50669 1.55423,-4.61375 -0.69895,-9.85998 -5.17954,-12.05992 -1.4349,-0.70453 -1.81713,-0.77237 -4.35121,-0.77237 -2.511,0 -2.9241,0.0717 -4.2963,0.74531 -3.76236,1.84705 -6.08616,5.96315 -5.66132,10.02779 0.40326,3.85812 3.03388,7.21354 6.63,8.45671 1.64061,0.56716 4.63966,0.61886 6.33323,0.10917 z m 158.198028,-0.51266 c 7.533963,-3.68604 7.528619,-14.3792 -0.0091,-18.08062 -1.372777,-0.6741 -1.785255,-0.7457 -4.296682,-0.7457 -2.508698,0 -2.924816,0.072 -4.290688,0.74266 -4.530754,2.22457 -6.802316,7.46652 -5.237967,12.08731 1.051844,3.10695 3.218009,5.34217 6.221363,6.41974 2.055487,0.7375 5.648706,0.53766 7.61301,-0.42339 z M -177.94044,196.2219 c 2.46675,-0.73594 3.96959,-2.50096 4.57949,-5.37843 0.21329,-1.00633 0.29718,-14.30513 0.29718,-47.11396 0,-40.10449 -0.0492,-45.871931 -0.40125,-47.016671 -0.4976,-1.6181 -1.25674,-2.53534 -2.69706,-3.25881 -1.10685,-0.55596 -1.25132,-0.55952 -22.68802,-0.55952 -11.86575,0 -21.57409,0.0734 -21.57409,0.16301 0,0.0897 1.55678,3.21504 3.4595,6.945311 3.73812,7.32853 4.06291,8.3317 3.65963,11.30349 -0.11035,0.81316 -0.5302,2.15262 -0.93299,2.97656 -1.3865,2.83616 -2.18087,3.36962 -13.84739,9.29923 -5.865,2.98093 -10.83175,5.5428 -11.03721,5.69304 -1.21471,0.88822 -1.76093,21.28894 -0.7934,29.6329 1.51147,13.03488 4.55007,25.26874 8.7946,35.40837 l 0.9606,2.29476 h 25.45781 c 21.64065,0 25.65345,-0.0584 26.7626,-0.38928 z m -57.75759,-82.04949 c 2.60955,-0.91059 4.80699,-3.03054 6.07447,-5.86026 0.80588,-1.79917 0.79107,-5.18022 -0.0319,-7.28082 -0.82963,-2.117611 -2.8049,-4.203131 -5.00674,-5.286171 -1.63586,-0.80465 -1.94967,-0.86609 -4.41105,-0.86361 -2.36159,0.002 -2.81448,0.0832 -4.16247,0.74266 -2.08008,1.01764 -3.77652,2.74788 -4.78832,4.883741 -0.76694,1.61899 -0.84201,2.00569 -0.83337,4.29281 0.008,2.18537 0.10371,2.70782 0.73105,4.00156 2.33396,4.81323 7.55684,7.06996 12.42832,5.37009 z m 252.393643,0.38917 c 3.18561,-0.66649 5.816309,-2.74878 7.276121,-5.75926 0.627327,-1.29374 0.722789,-1.81619 0.731044,-4.00156 0.0087,-2.28712 -0.06644,-2.67382 -0.833385,-4.29281 -1.011793,-2.135861 -2.708222,-3.866101 -4.788297,-4.883741 -1.347999,-0.65948 -1.800886,-0.74029 -4.162478,-0.74266 -2.461366,-0.002 -2.775188,0.059 -4.411054,0.86361 -3.6449786,1.79289 -5.5971276,4.954961 -5.6089016,9.085171 -0.0058,2.04336 0.08231,2.45891 0.853969,4.0264 1.466004,2.97787 4.158271,5.11338 7.1976726,5.70918 1.670764,0.32751 2.161963,0.32694 3.745309,-0.004 z M -23.202443,53.171031 c -1.136359,-1.27415 -7.618011,-6.80036 -10.955074,-9.34021 -14.943595,-11.37362 -31.790514,-19.21777 -50.073606,-23.31495 -2.163911,-0.48492 -4.07579,-0.82619 -4.248619,-0.75838 -0.172828,0.0678 -4.243297,4.05455 -9.045485,8.8594 -10.280913,10.2866 -10.487733,10.43491 -14.552083,10.43491 -4.06268,0 -4.27049,-0.14904 -14.55208,-10.43641 -4.80219,-4.80488 -8.85032,-8.7811 -8.99584,-8.83604 -0.40842,-0.15418 -5.92416,1.03409 -10.19531,2.19641 -15.8782,4.32098 -30.90883,11.75694 -44.17656,21.85506 -3.33707,2.53985 -9.81872,8.06606 -10.95507,9.34021 l -0.50403,0.56514 h 89.37889 89.378898 z m -85.793887,-31.18607 c 2.20984,-0.69703 3.99046,-2.04562 5.22699,-3.95877 1.35188,-2.09163 1.7058,-3.49097 1.56438,-6.18534 -0.14183,-2.7021799 -0.92454,-4.4895899 -2.77734,-6.3423899 -3.98895,-3.98896 -10.20107,-3.98896 -14.19002,0 -1.91795,1.91794 -2.65343,3.65369 -2.77583,6.5510199 -0.0827,1.95848 -2.7e-4,2.66184 0.45115,3.85128 1.93246,5.09096 7.32643,7.71626 12.50067,6.0842 z M 206.48103,238.92985 c -13.2054,-0.87204 -22.53919,-6.72407 -27.51915,-17.25375 -1.35832,-2.87208 -2.31873,-6.03863 -3.10825,-10.24826 -0.55761,-2.97305 -0.57396,-3.73922 -0.71435,-33.46979 l -0.14366,-30.42708 -0.76722,-1.38457 c -0.97538,-1.76028 -2.28928,-3.07417 -3.83656,-3.83658 -1.18039,-0.58161 -1.48617,-0.60216 -10.14675,-0.68183 l -8.92968,-0.0821 v -14.4038 -14.40379 h 34.91849 34.91849 l 0.0833,40.4151 c 0.0937,45.40434 -0.0526,42.14376 2.09048,46.60574 2.31164,4.813 6.27195,7.05619 11.22037,6.35541 7.00535,-0.99208 12.96104,-8.66603 15.48646,-19.95438 0.57351,-2.56351 0.59521,-3.19327 0.698,-20.24062 0.12387,-20.54938 0.1734,-20.03714 -2.16289,-22.37345 -1.90426,-1.90425 -2.29563,-1.96822 -12.04177,-1.96822 h -8.21722 v -14.41983 -14.41979 h 34.12826 34.12823 l 0.0692,44.91302 0.0691,44.91302 0.73901,1.25722 c 0.48226,0.8204 1.12575,1.4639 1.85208,1.85208 1.0966,0.58606 1.28051,0.59608 12.42402,0.67653 l 11.31093,0.0817 v 14.66885 14.66886 H 287.84257 252.6552 l -0.0684,-14.88281 -0.0684,-14.88282 -1.43211,2.10238 c -7.59116,11.14398 -15.84015,20.06023 -22.95977,24.81705 -7.29321,4.87277 -13.35246,6.55417 -21.64562,6.00654 z M 56.859153,221.10608 v -14.66344 l 9.194271,-0.10435 c 10.452656,-0.11864 10.992326,-0.20815 12.603505,-2.09047 1.72477,-2.01499 1.61785,1.91687 1.61785,-59.49498 0,-43.94103 -0.0709,-56.192121 -0.32994,-57.043081 -0.55067,-1.80865 -1.7853,-3.2481 -3.458709,-4.03256 l -1.503019,-0.70457 -9.591146,-0.0888 -9.591146,-0.0888 V 68.265589 53.736171 h 35.321882 35.321869 l 0.0116,74.281779 c 0.0124,79.11505 -0.0459,75.44177 1.21939,76.83991 1.23253,1.36194 1.52461,1.40475 10.21223,1.49694 l 8.13594,0.0863 v 14.6642 14.66419 H 101.44147 56.859179 v -14.66343 z m 270.139587,-0.021 v -14.68437 h 12.12861 12.12858 L 366.181,187.86894 c 8.20878,-10.19246 14.92504,-18.64313 14.92504,-18.77924 0,-0.13612 -6.003,-6.38198 -13.34003,-13.8797 L 354.42598,141.57784 H 341.7707 329.11541 v -14.41979 -14.41979 h 47.625 47.625 v 14.415 14.41501 l -6.23874,0.0709 -6.23874,0.0709 7.8545,8.25327 7.85447,8.25327 7.10264,-8.25327 7.10266,-8.25327 -5.4111,-0.0715 -5.4111,-0.0715 v -14.41439 -14.41442 h 34.79271 34.79271 v 14.41979 14.41979 l -10.78177,0.0155 -10.78178,0.0155 -14.13896,17.14118 c -7.77642,9.42764 -14.1215,17.22401 -14.10015,17.32525 0.0214,0.10124 6.47848,6.9659 14.34926,15.25479 l 14.31044,15.07069 h 11.89439 11.8944 v 14.68437 14.68438 h -46.96354 -46.96355 v -14.68437 -14.68437 h 6.08542 c 3.34698,0 6.08312,-0.0893 6.08028,-0.19844 -0.003,-0.10914 -3.56105,-4.27004 -7.9072,-9.24644 l -7.9021,-9.048 -7.57089,9.08903 c -4.16402,4.99896 -7.57092,9.15986 -7.57092,9.24644 0,0.0866 2.73843,0.15741 6.08541,0.15741 h 6.08542 v 14.68437 14.68438 h -37.83542 -37.83542 v -14.68438 z"
       id="path125" /></g></svg>
